<svg xmlns:mydata="http://www.w3.org/2000/svg" mydata:contrastcolor="ffffff" mydata:template="Contrast" mydata:presentation="2.5" mydata:layouttype="undefined" mydata:specialfontid="undefined" mydata:id1="449" mydata:id2="093" mydata:companyname="Gestión Ernesto Pérez" mydata:companytagline="" version="1.1" xmlns="http://www.w3.org/2000/svg" xmlns:xlink="http://www.w3.org/1999/xlink" viewBox="0 0 550 470" width="550"  height="470" ><g fill="none" fill-rule="nonzero" stroke="none" stroke-width="1" stroke-linecap="butt" stroke-linejoin="miter" stroke-miterlimit="10" stroke-dasharray="" stroke-dashoffset="0" font-family="none" font-weight="none" font-size="none" text-anchor="none" style="mix-blend-mode: normal"><g data-paper-data="{&quot;isGlobalGroup&quot;:true,&quot;bounds&quot;:{&quot;x&quot;:96.5697172241624,&quot;y&quot;:118.15051748499877,&quot;width&quot;:356.8605655516753,&quot;height&quot;:233.69896503000246}}" fill="none"><g data-paper-data="{&quot;stacked&quot;:true,&quot;isPrimaryText&quot;:true}" fill="none"><path d="M142.79513,227.28328c-0.3463,-2.07783 -1.38522,-3.11674 -2.94359,-3.6362c-1.03891,-0.3463 -2.94359,0 -3.9825,0.3463c-5.19457,1.55837 -10.21598,2.77044 -15.93001,3.6362c-0.51946,0 -1.03891,0.17315 -1.55837,0.3463c-1.55837,0.86576 -2.77044,1.90467 -2.94359,3.80935c-0.17315,1.90467 0.51946,3.6362 1.90467,4.50196c1.38522,0.86576 3.46305,0.51946 5.02142,0.17315c1.38522,-0.3463 2.77044,-0.51946 4.15565,-0.51946c1.21207,-0.17315 2.07783,0.51946 1.90467,1.73152c-0.17315,5.02142 -0.69261,10.04283 -5.02142,13.50588c-3.80935,3.28989 -7.6187,2.94359 -10.56229,-1.03891c-2.25098,-2.77044 -3.80935,-6.06033 -4.67511,-9.52337c-0.86576,-3.46305 -1.38522,-6.92609 -1.73152,-10.56229c-0.51946,-7.44555 -0.86576,-14.71794 -0.51946,-22.16349c0.51946,-9.00392 1.21207,-17.83468 2.77044,-26.66545c1.38522,-6.57979 3.6362,-12.81327 5.71402,-19.04675c1.21207,-3.6362 2.94359,-6.92609 5.19457,-10.21598c1.21207,-1.55837 2.59728,-2.59728 4.15565,-3.46305c2.07783,-1.03891 3.80935,-0.51946 5.19457,1.38522c0.86576,1.38522 1.03891,1.73152 1.38522,3.11674c1.55837,5.02142 1.73152,10.04283 0.69261,15.2374c-0.51946,2.42413 -1.03891,4.32881 -3.9825,5.02142c-3.46305,0.86576 -3.80935,4.15565 -1.21207,6.57979c1.03891,1.03891 2.25098,1.55837 3.6362,1.90467c1.55837,0.51946 2.59728,0.86576 4.15565,1.38522c2.25098,0.69261 4.67511,0.3463 6.23348,-1.73152c1.38522,-1.73152 0.86576,-3.46305 -0.51946,-4.84826c-1.38522,-1.38522 -1.38522,-2.77044 -0.69261,-4.50196c2.25098,-6.06033 1.73152,-12.29381 0.69261,-18.52729c-1.03891,-6.23348 -3.46305,-10.38914 -9.00392,-13.15957c-3.6362,-1.90467 -8.31131,-1.55837 -11.6012,0.51946c-3.80935,2.25098 -6.75294,5.19457 -9.00392,9.17707c-5.54087,10.56229 -9.00392,21.81718 -10.90859,33.41839c-2.25098,13.85218 -2.77044,27.87751 -1.73152,42.076c0.3463,5.88718 0.86576,11.6012 2.42413,17.31523c1.73152,6.23348 4.50196,11.2549 9.17707,15.5837c2.77044,2.59728 6.23348,3.46305 10.73544,3.11674c4.50196,-0.3463 8.31131,-2.42413 11.6012,-5.88718c5.02142,-5.19457 6.57979,-12.98642 6.40663,-18.52729c-0.17315,-2.77044 0.17315,-4.67511 2.77044,-5.88718c1.55837,-0.69261 2.94359,-2.25098 2.59728,-3.9825z" data-paper-data="{&quot;glyphName&quot;:&quot;G&quot;,&quot;glyphIndex&quot;:0,&quot;firstGlyphOfWord&quot;:true,&quot;word&quot;:1,&quot;line&quot;:1,&quot;firstGlyphOfFirstLine&quot;:true}" fill="#948946"></path><path d="M150.41383,208.92914c0,0.69261 0,1.38522 0,2.07783c0,12.12066 0.86576,24.06816 3.80935,36.01567c1.90467,7.965 7.09924,13.15957 15.93001,13.67903c4.32881,0.3463 8.13816,0.51946 13.67903,0.17315c2.07783,0 2.94359,0 4.32881,0.3463c3.46305,0.69261 5.71402,-1.03891 5.71402,-4.67511c-0.17315,-1.55837 -0.69261,-3.28989 -0.86576,-5.02142c-0.51946,-1.90467 -1.73152,-3.11674 -3.6362,-3.11674c-1.90467,0 -3.11674,0.3463 -3.80935,1.90467c-0.86576,1.38522 -1.73152,2.42413 -3.46305,2.42413c-3.80935,-0.17315 -7.6187,0 -11.42805,-0.3463c-3.46305,-0.3463 -6.06033,-2.07783 -7.09924,-5.71402c-1.73152,-5.88718 -2.77044,-11.94751 -2.59728,-18.00783c0.17315,-2.94359 0.17315,-3.11674 3.11674,-3.6362c4.32881,-0.86576 8.83077,-1.55837 13.15957,-2.25098c1.38522,-0.3463 2.42413,0 3.80935,0.69261c2.94359,1.55837 5.36772,0.3463 5.88718,-3.11674c0.51946,-2.59728 0.17315,-4.15565 -0.51946,-6.75294c-0.69261,-2.07783 -2.59728,-4.15565 -4.67511,-4.50196c-2.07783,-0.17315 -3.28989,1.21207 -3.9825,2.77044c-0.3463,1.21207 -1.21207,2.07783 -2.42413,2.42413c-4.15565,0.86576 -8.31131,1.38522 -12.46696,1.90467c-1.73152,0.17315 -2.42413,-0.69261 -2.59728,-2.42413c0,-0.86576 0,-1.73152 0,-2.77044c-0.3463,-9.52337 -0.17315,-18.8736 0.86576,-28.39697c0.86576,-8.13816 1.55837,-14.19849 3.11674,-22.16349c0.3463,-2.25098 1.03891,-5.54087 2.07783,-7.6187c0.51946,-1.38522 2.25098,-2.77044 4.67511,-3.28989c6.75294,-1.55837 9.35022,-1.73152 10.21598,-0.17315c1.55837,3.11674 3.9825,3.46305 6.57979,1.21207c2.77044,-2.59728 3.80935,-7.965 2.25098,-11.42805c-1.38522,-2.77044 -2.94359,-3.28989 -5.71402,-1.73152c-1.21207,0.51946 -2.07783,1.73152 -3.46305,1.90467c-4.32881,0.51946 -7.27239,1.03891 -11.6012,2.25098c-6.40663,1.55837 -9.52337,3.6362 -11.6012,8.83077c-1.55837,3.46305 -2.59728,7.27239 -3.11674,11.08174c-0.69261,4.84826 -1.38522,9.86968 -2.07783,14.71794c-1.55837,10.90859 -1.90467,21.81718 -2.07783,32.72578z" data-paper-data="{&quot;glyphName&quot;:&quot;E&quot;,&quot;glyphIndex&quot;:1,&quot;word&quot;:1,&quot;line&quot;:1}" fill="#948946"></path><path d="M245.82072,212.91164c-2.77044,-7.44555 -6.23348,-14.54479 -10.04283,-21.64403c-4.32881,-8.13816 -9.17707,-15.75686 -13.85218,-23.72186c-1.90467,-3.46305 -3.46305,-7.09924 -4.50196,-10.73544c-0.51946,-1.90467 -0.69261,-3.80935 -0.17315,-5.71402c0.69261,-3.46305 3.28989,-4.50196 6.23348,-2.25098c3.80935,3.28989 6.75294,6.92609 6.40663,12.46696c-0.17315,2.94359 1.73152,4.50196 4.67511,3.9825c3.11674,-0.3463 5.71402,-2.07783 7.965,-4.32881c2.25098,-2.77044 1.90467,-5.54087 -1.38522,-7.09924c-1.90467,-0.86576 -3.46305,-1.55837 -4.67511,-3.28989c-3.6362,-5.54087 -7.6187,-10.38914 -14.37164,-11.2549c-6.23348,-0.69261 -11.6012,2.07783 -13.50588,8.13816c-1.38522,4.67511 -1.21207,9.35022 0.3463,13.85218c1.73152,4.67511 3.80935,9.17707 6.57979,13.50588c3.28989,5.36772 6.57979,11.08174 9.86968,16.62262c3.28989,5.36772 5.88718,11.2549 8.48446,16.96892c2.42413,5.54087 4.84826,9.00392 5.02142,16.27631c0,2.59728 0,4.32881 -0.17315,5.88718c-0.3463,7.27239 -2.94359,15.5837 -10.38914,20.25881c-7.79185,5.19457 -14.89109,1.90467 -18.00783,-6.23348c-2.42413,-6.06033 -1.55837,-12.46696 2.07783,-18.18099c2.07783,-3.11674 4.32881,-5.71402 8.83077,-4.50196c3.28989,0.86576 5.02142,-1.73152 3.9825,-5.02142c-1.03891,-3.11674 -3.28989,-5.54087 -5.88718,-7.44555c-3.80935,-2.77044 -7.965,-0.69261 -8.13816,3.9825c0,1.73152 -0.86576,2.42413 -1.73152,3.46305c-6.23348,5.88718 -9.69653,13.15957 -10.21598,21.64403c-0.51946,9.86968 3.9825,16.27631 11.94751,21.29773c2.94359,1.73152 8.48446,2.25098 13.67903,1.38522c2.07783,-0.17315 6.06033,-1.73152 8.13816,-3.11674c7.79185,-5.54087 12.46696,-12.12066 14.02533,-22.16349c1.21207,-7.79185 1.55837,-15.5837 -1.21207,-23.02925z" data-paper-data="{&quot;glyphName&quot;:&quot;S&quot;,&quot;glyphIndex&quot;:2,&quot;word&quot;:1,&quot;line&quot;:1}" fill="#948946"></path><path d="M279.06596,167.89206c0.3463,-5.54087 0.69261,-11.08174 1.03891,-16.44946c0.17315,-2.77044 0.51946,-3.11674 3.11674,-3.28989c2.42413,-0.17315 4.84826,0 7.27239,0c1.38522,0 2.94359,0 4.32881,-0.17315c1.38522,-0.3463 3.46305,-1.55837 3.11674,-3.80935c-0.17315,-1.73152 -0.86576,-2.94359 -2.59728,-3.46305c-1.21207,-0.51946 -2.42413,-0.51946 -3.6362,-0.69261c-3.80935,-0.17315 -7.79185,0 -11.42805,-0.17315c-6.40663,-0.3463 -12.81327,-0.3463 -19.2199,-0.3463c-1.90467,0 -3.6362,0 -4.84826,1.38522c-2.07783,2.25098 -1.90467,5.54087 0.86576,6.57979c1.03891,0.3463 3.11674,0.3463 4.32881,0.3463c2.59728,-0.3463 3.9825,-0.3463 6.23348,0c3.11674,0.3463 3.11674,0.3463 2.94359,3.46305c0,4.32881 -0.86576,8.48446 -0.69261,12.64011c0,11.94751 0,23.89501 0,35.84252c-0.17315,16.96892 0,33.93784 1.03891,51.07992c0,1.73152 -0.3463,2.42413 -2.07783,2.77044c-2.25098,0.3463 -4.15565,1.55837 -4.15565,3.9825c0,2.07783 0.86576,3.11674 2.77044,3.9825c0.86576,0.3463 2.25098,0.51946 2.77044,0.3463c3.9825,-0.17315 7.965,-0.3463 11.77435,-0.86576c1.55837,-0.17315 3.11674,-1.03891 3.28989,-2.77044c0.3463,-1.55837 0.17315,-3.11674 -1.03891,-4.15565c-0.3463,-0.17315 -1.38522,-0.3463 -1.73152,-0.51946c-2.25098,-0.3463 -2.59728,-2.07783 -2.77044,-3.9825c-0.17315,-1.38522 -0.3463,-2.77044 -0.3463,-4.15565c0,-14.19849 -0.3463,-28.39697 -0.17315,-42.59546c0.17315,-11.77435 -0.51946,-23.37556 -0.17315,-34.97676z" data-paper-data="{&quot;glyphName&quot;:&quot;T&quot;,&quot;glyphIndex&quot;:3,&quot;word&quot;:1,&quot;line&quot;:1}" fill="#948946"></path><path d="M320.79565,139.66824c-4.84826,0 -8.48446,-0.17315 -11.94751,0c-2.59728,0.17315 -4.50196,2.25098 -4.50196,4.50196c0,2.07783 1.55837,3.46305 4.15565,3.80935c0.3463,0.17315 0.69261,0 0.86576,0.17315c3.46305,0.3463 3.46305,0.3463 3.6362,3.80935c0,1.03891 0,1.90467 0,2.94359c-0.17315,16.79577 -0.3463,33.76469 -0.3463,50.56046c0,14.37164 0.86576,28.57012 2.25098,42.59546c0.3463,4.15565 0.3463,4.32881 -3.9825,4.32881c-1.90467,0 -3.6362,0.3463 -5.19457,1.55837c-2.07783,1.73152 -1.90467,4.67511 0.17315,5.88718c1.73152,1.38522 3.9825,1.55837 6.06033,1.55837c6.92609,0 13.67903,-0.3463 20.60512,-0.51946c0.51946,0 1.03891,-0.17315 1.55837,-0.3463c2.77044,-0.86576 3.46305,-3.28989 1.90467,-5.71402c-0.86576,-1.21207 -2.25098,-2.07783 -3.80935,-2.07783c-1.73152,-0.17315 -3.46305,-0.3463 -5.19457,-0.3463c-2.07783,0 -3.11674,-1.03891 -3.28989,-3.11674c-0.3463,-3.6362 -0.69261,-7.09924 -1.03891,-10.73544c-0.86576,-12.98642 -0.86576,-25.97284 -1.03891,-39.82502c0,-7.6187 0.17315,-13.50588 0.3463,-20.95142c0.17315,-8.48446 0,-17.14207 0.17315,-25.79969c0,-3.6362 0,-3.6362 3.80935,-3.9825c2.42413,-0.17315 4.67511,-0.17315 6.92609,-1.03891c1.73152,-0.51946 2.25098,-2.42413 2.07783,-3.9825c-0.17315,-2.07783 -1.21207,-3.11674 -3.28989,-3.28989c-3.9825,-0.69261 -7.6187,0 -10.90859,0z" data-paper-data="{&quot;glyphName&quot;:&quot;I&quot;,&quot;glyphIndex&quot;:4,&quot;word&quot;:1,&quot;line&quot;:1}" fill="#948946"></path><path d="M388.32503,242.00122c2.07783,-7.79185 3.11674,-20.77827 3.46305,-29.08958c0.51946,-12.46696 -0.3463,-19.91251 -1.55837,-32.37947c-1.21207,-11.77435 -5.19457,-22.8561 -9.86968,-33.76469c-1.03891,-2.42413 -2.59728,-4.67511 -5.36772,-6.06033c-7.27239,-3.80935 -17.48838,-0.86576 -21.99034,6.40663c-3.11674,5.36772 -4.32881,11.42805 -5.36772,17.31523c-2.25098,12.64011 -3.11674,25.45338 -3.28989,38.26665c0,10.21598 0.69261,20.43197 2.42413,30.64795c1.03891,6.23348 2.42413,12.46696 5.54087,18.18099c2.59728,4.67511 5.54087,7.09924 10.21598,9.00392c2.77044,1.03891 6.06033,1.38522 9.00392,1.03891c1.90467,-0.3463 3.9825,-1.38522 4.67511,-1.90467c2.77044,-2.07783 9.35022,-7.09924 12.12066,-17.66153zM382.78416,215.16262c-0.3463,4.84826 -0.3463,8.65761 -1.03891,13.67903c-0.17315,0.69261 -0.17315,2.42413 -0.51946,3.6362c-1.73152,10.38914 -6.06033,15.2374 -9.52337,18.00783c-1.73152,1.38522 -3.6362,2.07783 -5.54087,1.55837c-4.15565,-1.38522 -7.965,-6.92609 -9.00392,-11.08174c-1.03891,-4.15565 -1.21207,-5.71402 -1.73152,-10.04283c-1.03891,-7.79185 -1.55837,-15.75686 -1.55837,-23.72186c-0.17315,-9.00392 0.17315,-18.18099 1.21207,-27.1849c0.86576,-7.27239 1.90467,-14.37164 3.80935,-21.47088c1.03891,-3.6362 2.25098,-7.27239 6.06033,-9.17707c3.6362,-2.07783 6.40663,-1.21207 8.13816,2.42413c1.03891,2.25098 2.77044,7.6187 3.9825,11.08174c2.07783,6.23348 3.46305,12.81327 4.32881,19.56621c1.55837,10.90859 1.90467,21.81718 1.38522,32.72578zM360.44752,135.16628c1.21207,0.17315 2.59728,-0.86576 3.6362,-1.55837c3.28989,-2.42413 7.6187,-5.88718 10.73544,-9.17707c1.73152,-1.90467 1.38522,-4.15565 0.3463,-5.19457c-1.03891,-1.03891 -3.46305,-1.55837 -5.36772,-0.51946c-3.46305,1.90467 -6.23348,5.02142 -9.52337,7.6187c-0.69261,0.51946 -2.59728,2.25098 -2.94359,2.94359c-1.73152,3.11674 -0.51946,5.88718 3.11674,5.88718z" data-paper-data="{&quot;glyphName&quot;:&quot;Ó&quot;,&quot;glyphIndex&quot;:5,&quot;word&quot;:1,&quot;line&quot;:1}" fill="#948946"></path><path d="M412.91265,163.04379c0.3463,-2.07783 1.38522,-0.51946 1.55837,1.03891c1.03891,4.50196 2.07783,9.17707 2.94359,13.67903c0.86576,5.54087 1.38522,11.08174 2.42413,16.44946c1.55837,9.35022 3.28989,18.70044 5.19457,27.87751c1.73152,9.17707 3.80935,18.00783 6.92609,26.8386c1.03891,2.77044 2.42413,5.19457 3.9825,7.6187c2.42413,3.9825 5.36772,4.50196 8.48446,0.17315c0.69261,-1.03891 1.21207,-2.59728 1.55837,-3.11674c4.15565,-9.35022 4.67511,-16.79577 6.06033,-25.97284c1.38522,-10.04283 1.38522,-20.08566 1.38522,-30.30165c0,-16.10316 -1.73152,-32.20632 -4.15565,-48.13633c-0.3463,-2.42413 -0.3463,-4.50196 1.21207,-6.75294c1.38522,-1.90467 0.86576,-3.9825 -1.21207,-4.84826c-3.6362,-1.03891 -7.6187,-1.55837 -11.2549,-0.17315c-1.38522,0.51946 -2.59728,1.21207 -2.77044,2.94359c0,1.55837 1.03891,2.59728 2.42413,3.11674c2.77044,0.69261 3.46305,2.59728 3.80935,5.02142c2.94359,19.2199 4.84826,38.61295 4.15565,58.00601c-0.3463,12.12066 -1.90467,23.89501 -4.32881,35.66937c-0.17315,1.03891 -1.03891,4.32881 -1.55837,2.77044c-1.55837,-4.15565 -2.77044,-8.83077 -3.6362,-13.15957c-1.55837,-7.6187 -2.94359,-13.15957 -4.50196,-21.81718c-2.59728,-15.06425 -4.67511,-30.12849 -8.31131,-44.50013c-0.51946,-2.25098 -1.55837,-6.23348 -2.07783,-8.65761c-0.86576,-4.50196 -1.55837,-6.57979 -2.94359,-11.08174c-0.69261,-2.59728 -2.07783,-4.67511 -4.15565,-4.50196c-2.07783,0 -4.15565,0.3463 -5.54087,3.11674c-1.21207,2.42413 -2.07783,6.75294 -2.59728,10.21598c-1.73152,11.94751 -3.28989,24.06816 -3.28989,36.18882c-0.17315,6.57979 0,13.15957 0,19.73936c-0.17315,13.15957 0.69261,26.14599 2.77044,39.13241c0.3463,1.90467 0.17315,3.28989 -1.90467,4.32881c-2.59728,1.38522 -2.77044,3.80935 -1.03891,6.23348c0.86576,1.21207 2.25098,2.25098 3.9825,2.59728c2.94359,0.51946 4.67511,0.69261 7.6187,0.3463c1.21207,-0.17315 3.6362,-0.69261 4.50196,-1.38522c1.03891,-1.03891 2.25098,-2.25098 1.90467,-3.9825c-0.3463,-1.73152 -1.38522,-2.94359 -3.28989,-3.11674c-2.07783,-0.17315 -2.42413,-1.38522 -2.77044,-2.94359c-1.38522,-6.06033 -1.73152,-12.29381 -2.07783,-18.35414c-0.51946,-8.83077 -1.03891,-17.48838 -0.86576,-26.14599c0,-1.03891 -0.17315,-16.10316 -0.17315,-19.04675c0.3463,-6.57979 0.86576,-13.33272 0.86576,-16.79577c0.17315,-2.77044 0.3463,-6.23348 0.69261,-8.31131z" data-paper-data="{&quot;glyphName&quot;:&quot;N&quot;,&quot;glyphIndex&quot;:6,&quot;lastGlyphOfWord&quot;:true,&quot;word&quot;:1,&quot;line&quot;:1,&quot;lastGlyphOfFirstLine&quot;:true}" fill="#948946"></path><path d="M96.56972,322.90467c0,0.36868 0,0.73735 0,1.10603c0,6.45183 0.46085,12.8115 2.02772,19.17116c1.01386,4.23978 3.77893,7.00485 8.47955,7.28135c2.30423,0.18434 4.33195,0.27651 7.28135,0.09217c1.10603,0 1.56687,0 2.30423,0.18434c1.84338,0.36868 3.04158,-0.55301 3.04158,-2.48856c-0.09217,-0.82952 -0.36868,-1.75121 -0.46085,-2.6729c-0.27651,-1.01386 -0.92169,-1.65904 -1.93555,-1.65904c-1.01386,0 -1.65904,0.18434 -2.02772,1.01386c-0.46085,0.73735 -0.92169,1.29037 -1.84338,1.29037c-2.02772,-0.09217 -4.05544,0 -6.08316,-0.18434c-1.84338,-0.18434 -3.22592,-1.10603 -3.77893,-3.04158c-0.92169,-3.13375 -1.4747,-6.35966 -1.38254,-9.58558c0.09217,-1.56687 0.09217,-1.65904 1.65904,-1.93555c2.30423,-0.46085 4.70062,-0.82952 7.00485,-1.1982c0.73735,-0.18434 1.29037,0 2.02772,0.36868c1.56687,0.82952 2.85724,0.18434 3.13375,-1.65904c0.27651,-1.38254 0.09217,-2.21206 -0.27651,-3.59459c-0.36868,-1.10603 -1.38254,-2.21206 -2.48856,-2.3964c-1.10603,-0.09217 -1.75121,0.64518 -2.11989,1.4747c-0.18434,0.64518 -0.64518,1.10603 -1.29037,1.29037c-2.21206,0.46085 -4.42411,0.73735 -6.63617,1.01386c-0.92169,0.09217 -1.29037,-0.36868 -1.38254,-1.29037c0,-0.46085 0,-0.92169 0,-1.4747c-0.18434,-5.0693 -0.09217,-10.04643 0.46085,-15.11572c0.46085,-4.33195 0.82952,-7.55786 1.65904,-11.79764c0.18434,-1.1982 0.55301,-2.94941 1.10603,-4.05544c0.27651,-0.73735 1.1982,-1.4747 2.48856,-1.75121c3.59459,-0.82952 4.97713,-0.92169 5.43797,-0.09217c0.82952,1.65904 2.11989,1.84338 3.50242,0.64518c1.4747,-1.38254 2.02772,-4.23978 1.1982,-6.08316c-0.73735,-1.4747 -1.56687,-1.75121 -3.04158,-0.92169c-0.64518,0.27651 -1.10603,0.92169 -1.84338,1.01386c-2.30423,0.27651 -3.8711,0.55301 -6.17533,1.1982c-3.41025,0.82952 -5.0693,1.93555 -6.17533,4.70062c-0.82952,1.84338 -1.38254,3.8711 -1.65904,5.89882c-0.36868,2.58073 -0.73735,5.25364 -1.10603,7.83437c-0.82952,5.80665 -1.01386,11.6133 -1.10603,17.41995z" data-paper-data="{&quot;glyphName&quot;:&quot;E&quot;,&quot;glyphIndex&quot;:7,&quot;firstGlyphOfWord&quot;:true,&quot;word&quot;:2,&quot;line&quot;:2,&quot;firstGlyphOfSecondLine&quot;:true}" fill="#C6B661"></path><path d="M130.02708,305.30038c-0.36868,0.64518 0.09217,-3.41025 0.18434,-5.0693c0.18434,-2.6729 0.36868,-5.3458 0.55301,-8.01871c0.09217,-1.10603 0.46085,-1.93555 1.65904,-2.48856c1.29037,-0.55301 1.4747,-1.56687 0.64518,-2.76507c-0.55301,-0.73735 -1.29037,-0.92169 -2.11989,-0.82952c-1.75121,0.09217 -3.50242,0.46085 -5.16147,0.92169c-1.01386,0.27651 -1.75121,0.73735 -1.84338,1.84338c-0.09217,1.1982 0.64518,1.84338 1.56687,2.02772c1.1982,0.27651 1.29037,1.01386 1.29037,1.93555c-0.18434,2.21206 -0.36868,4.33195 -0.55301,6.45183c-0.36868,4.23978 -0.73735,8.38738 -1.01386,12.62716c-0.27651,4.97713 -0.46085,9.95426 -0.64518,15.02355c-0.18434,5.71448 -0.09217,11.42896 -0.09217,17.05127c0,1.1982 -0.09217,1.84338 -0.92169,2.76507c-0.55301,0.64518 -1.01386,1.75121 -0.55301,2.58073c0.46085,1.01386 1.29037,1.29037 2.30423,1.29037c2.02772,0.09217 3.68676,-0.18434 5.71448,-0.64518c0.73735,-0.18434 1.56687,-0.73735 1.56687,-1.4747c0.18434,-1.1982 -0.36868,-2.02772 -1.65904,-2.3964c-1.56687,-0.46085 -1.56687,-0.46085 -1.56687,-2.11989c-0.09217,-3.13375 -0.27651,-4.60845 -0.27651,-8.75606c-0.09217,-1.75121 -0.09217,-3.77893 0.36868,-3.8711c0.55301,-0.18434 1.01386,0.55301 1.29037,0.92169c2.94941,3.13375 6.544,5.3458 10.69161,6.35966c0.82952,0.18434 1.4747,0.64518 2.11989,1.1982c1.29037,1.10603 2.76507,0.92169 3.8711,-0.46085c0.82952,-1.01386 1.01386,-2.3964 1.1982,-3.68676c0.18434,-0.92169 -0.36868,-1.75121 -1.1982,-2.11989c-0.82952,-0.46085 -1.65904,-0.18434 -2.21206,0.46085c-0.73735,0.82952 -1.56687,0.73735 -2.58073,0.55301c-2.76507,-0.55301 -4.97713,-2.30423 -7.00485,-4.05544c-1.1982,-1.01386 -2.30423,-2.21206 -3.41025,-3.50242c-1.1982,-1.38254 -1.38254,-1.75121 0.55301,-2.94941c1.38254,-0.82952 2.85724,-1.4747 4.14761,-2.3964c5.3458,-3.96327 8.9404,-7.09702 12.25848,-12.25848c2.58073,-4.05544 3.50242,-9.58558 2.76507,-14.37837c-0.18434,-1.38254 -0.82952,-2.48856 -2.21206,-3.22592c-2.11989,-1.1982 -4.60845,-1.4747 -7.18919,-0.36868c-3.41025,1.29037 -5.62231,3.41025 -7.83437,6.63617c-1.84338,2.3964 -3.13375,4.79279 -4.70062,7.18919zM130.58009,319.49441c0.46085,-2.94941 0.73735,-5.62231 1.65904,-8.57172c1.4747,-4.42411 3.77893,-7.83437 6.544,-11.52113c1.10603,-1.4747 2.76507,-3.04158 4.51628,-3.96327c0.55301,-0.27651 1.1982,-0.36868 1.84338,-0.36868c1.29037,0 2.30423,0.82952 2.48856,2.02772c0.46085,3.04158 0.27651,6.26749 -1.4747,9.30907c-1.4747,2.48856 -3.22592,4.70062 -5.3458,6.72834c-2.58073,2.3964 -5.3458,4.79279 -8.57172,6.35966c-0.46085,0.18434 -0.82952,0.36868 -1.29037,0.55301c-0.09217,0 -0.46085,0 -0.36868,-0.55301z" data-paper-data="{&quot;glyphName&quot;:&quot;R&quot;,&quot;glyphIndex&quot;:8,&quot;word&quot;:2,&quot;line&quot;:2}" fill="#C6B661"></path><path d="M161.36455,298.47987c0.18434,-1.10603 0.73735,-0.27651 0.82952,0.55301c0.55301,2.3964 1.10603,4.88496 1.56687,7.28135c0.46085,2.94941 0.73735,5.89882 1.29037,8.75606c0.82952,4.97713 1.75121,9.95426 2.76507,14.83922c0.92169,4.88496 2.02772,9.58558 3.68676,14.2862c0.55301,1.4747 1.29037,2.76507 2.11989,4.05544c1.29037,2.11989 2.85724,2.3964 4.51628,0.09217c0.36868,-0.55301 0.64518,-1.38254 0.82952,-1.65904c2.21206,-4.97713 2.48856,-8.9404 3.22592,-13.82536c0.73735,-5.3458 0.73735,-10.69161 0.73735,-16.12958c0,-8.57172 -0.92169,-17.14344 -2.21206,-25.62299c-0.18434,-1.29037 -0.18434,-2.3964 0.64518,-3.59459c0.73735,-1.01386 0.46085,-2.11989 -0.64518,-2.58073c-1.93555,-0.55301 -4.05544,-0.82952 -5.99099,-0.09217c-0.73735,0.27651 -1.38254,0.64518 -1.4747,1.56687c0,0.82952 0.55301,1.38254 1.29037,1.65904c1.4747,0.36868 1.84338,1.38254 2.02772,2.6729c1.56687,10.23076 2.58073,20.5537 2.21206,30.87663c-0.18434,6.45183 -1.01386,12.71933 -2.30423,18.98682c-0.09217,0.55301 -0.55301,2.30423 -0.82952,1.4747c-0.82952,-2.21206 -1.4747,-4.70062 -1.93555,-7.00485c-0.82952,-4.05544 -1.56687,-7.00485 -2.3964,-11.6133c-1.38254,-8.01871 -2.48856,-16.03741 -4.42411,-23.68744c-0.27651,-1.1982 -0.82952,-3.31809 -1.10603,-4.60845c-0.46085,-2.3964 -0.82952,-3.50242 -1.56687,-5.89882c-0.36868,-1.38254 -1.10603,-2.48856 -2.21206,-2.3964c-1.10603,0 -2.21206,0.18434 -2.94941,1.65904c-0.64518,1.29037 -1.10603,3.59459 -1.38254,5.43797c-0.92169,6.35966 -1.75121,12.8115 -1.75121,19.26333c-0.09217,3.50242 0,7.00485 0,10.50727c-0.09217,7.00485 0.36868,13.91753 1.4747,20.8302c0.18434,1.01386 0.09217,1.75121 -1.01386,2.30423c-1.38254,0.73735 -1.4747,2.02772 -0.55301,3.31809c0.46085,0.64518 1.1982,1.1982 2.11989,1.38254c1.56687,0.27651 2.48856,0.36868 4.05544,0.18434c0.64518,-0.09217 1.93555,-0.36868 2.3964,-0.73735c0.55301,-0.55301 1.1982,-1.1982 1.01386,-2.11989c-0.18434,-0.92169 -0.73735,-1.56687 -1.75121,-1.65904c-1.10603,-0.09217 -1.29037,-0.73735 -1.4747,-1.56687c-0.73735,-3.22592 -0.92169,-6.544 -1.10603,-9.76992c-0.27651,-4.70062 -0.55301,-9.30907 -0.46085,-13.91753c0,-0.55301 -0.09217,-8.57172 -0.09217,-10.13859c0.18434,-3.50242 0.46085,-7.09702 0.46085,-8.9404c0.09217,-1.4747 0.18434,-3.31809 0.36868,-4.42411z" data-paper-data="{&quot;glyphName&quot;:&quot;N&quot;,&quot;glyphIndex&quot;:9,&quot;word&quot;:2,&quot;line&quot;:2}" fill="#C6B661"></path><path d="M188.83093,322.90467c0,0.36868 0,0.73735 0,1.10603c0,6.45183 0.46085,12.8115 2.02772,19.17116c1.01386,4.23978 3.77893,7.00485 8.47955,7.28135c2.30423,0.18434 4.33195,0.27651 7.28135,0.09217c1.10603,0 1.56687,0 2.30423,0.18434c1.84338,0.36868 3.04158,-0.55301 3.04158,-2.48856c-0.09217,-0.82952 -0.36868,-1.75121 -0.46085,-2.6729c-0.27651,-1.01386 -0.92169,-1.65904 -1.93555,-1.65904c-1.01386,0 -1.65904,0.18434 -2.02772,1.01386c-0.46085,0.73735 -0.92169,1.29037 -1.84338,1.29037c-2.02772,-0.09217 -4.05544,0 -6.08316,-0.18434c-1.84338,-0.18434 -3.22592,-1.10603 -3.77893,-3.04158c-0.92169,-3.13375 -1.4747,-6.35966 -1.38254,-9.58558c0.09217,-1.56687 0.09217,-1.65904 1.65904,-1.93555c2.30423,-0.46085 4.70062,-0.82952 7.00485,-1.1982c0.73735,-0.18434 1.29037,0 2.02772,0.36868c1.56687,0.82952 2.85724,0.18434 3.13375,-1.65904c0.27651,-1.38254 0.09217,-2.21206 -0.27651,-3.59459c-0.36868,-1.10603 -1.38254,-2.21206 -2.48856,-2.3964c-1.10603,-0.09217 -1.75121,0.64518 -2.11989,1.4747c-0.18434,0.64518 -0.64518,1.10603 -1.29037,1.29037c-2.21206,0.46085 -4.42411,0.73735 -6.63617,1.01386c-0.92169,0.09217 -1.29037,-0.36868 -1.38254,-1.29037c0,-0.46085 0,-0.92169 0,-1.4747c-0.18434,-5.0693 -0.09217,-10.04643 0.46085,-15.11572c0.46085,-4.33195 0.82952,-7.55786 1.65904,-11.79764c0.18434,-1.1982 0.55301,-2.94941 1.10603,-4.05544c0.27651,-0.73735 1.1982,-1.4747 2.48856,-1.75121c3.59459,-0.82952 4.97713,-0.92169 5.43797,-0.09217c0.82952,1.65904 2.11989,1.84338 3.50242,0.64518c1.4747,-1.38254 2.02772,-4.23978 1.1982,-6.08316c-0.73735,-1.4747 -1.56687,-1.75121 -3.04158,-0.92169c-0.64518,0.27651 -1.10603,0.92169 -1.84338,1.01386c-2.30423,0.27651 -3.8711,0.55301 -6.17533,1.1982c-3.41025,0.82952 -5.0693,1.93555 -6.17533,4.70062c-0.82952,1.84338 -1.38254,3.8711 -1.65904,5.89882c-0.36868,2.58073 -0.73735,5.25364 -1.10603,7.83437c-0.82952,5.80665 -1.01386,11.6133 -1.10603,17.41995z" data-paper-data="{&quot;glyphName&quot;:&quot;E&quot;,&quot;glyphIndex&quot;:10,&quot;word&quot;:2,&quot;line&quot;:2}" fill="#C6B661"></path><path d="M239.61607,325.02456c-1.4747,-3.96327 -3.31809,-7.7422 -5.3458,-11.52113c-2.30423,-4.33195 -4.88496,-8.38738 -7.37352,-12.62716c-1.01386,-1.84338 -1.84338,-3.77893 -2.3964,-5.71448c-0.27651,-1.01386 -0.36868,-2.02772 -0.09217,-3.04158c0.36868,-1.84338 1.75121,-2.3964 3.31809,-1.1982c2.02772,1.75121 3.59459,3.68676 3.41025,6.63617c-0.09217,1.56687 0.92169,2.3964 2.48856,2.11989c1.65904,-0.18434 3.04158,-1.10603 4.23978,-2.30423c1.1982,-1.4747 1.01386,-2.94941 -0.73735,-3.77893c-1.01386,-0.46085 -1.84338,-0.82952 -2.48856,-1.75121c-1.93555,-2.94941 -4.05544,-5.53014 -7.65003,-5.99099c-3.31809,-0.36868 -6.17533,1.10603 -7.18919,4.33195c-0.73735,2.48856 -0.64518,4.97713 0.18434,7.37352c0.92169,2.48856 2.02772,4.88496 3.50242,7.18919c1.75121,2.85724 3.50242,5.89882 5.25364,8.84823c1.75121,2.85724 3.13375,5.99099 4.51628,9.03257c1.29037,2.94941 2.58073,4.79279 2.6729,8.66389c0,1.38254 0,2.30423 -0.09217,3.13375c-0.18434,3.8711 -1.56687,8.29521 -5.53014,10.78378c-4.14761,2.76507 -7.92654,1.01386 -9.58558,-3.31809c-1.29037,-3.22592 -0.82952,-6.63617 1.10603,-9.67775c1.10603,-1.65904 2.30423,-3.04158 4.70062,-2.3964c1.75121,0.46085 2.6729,-0.92169 2.11989,-2.6729c-0.55301,-1.65904 -1.75121,-2.94941 -3.13375,-3.96327c-2.02772,-1.4747 -4.23978,-0.36868 -4.33195,2.11989c0,0.92169 -0.46085,1.29037 -0.92169,1.84338c-3.31809,3.13375 -5.16147,7.00485 -5.43797,11.52113c-0.27651,5.25364 2.11989,8.66389 6.35966,11.33679c1.56687,0.92169 4.51628,1.1982 7.28135,0.73735c1.10603,-0.09217 3.22592,-0.92169 4.33195,-1.65904c4.14761,-2.94941 6.63617,-6.45183 7.46569,-11.79764c0.64518,-4.14761 0.82952,-8.29521 -0.64518,-12.25848z" data-paper-data="{&quot;glyphName&quot;:&quot;S&quot;,&quot;glyphIndex&quot;:11,&quot;word&quot;:2,&quot;line&quot;:2}" fill="#C6B661"></path><path d="M257.31253,301.06061c0.18434,-2.94941 0.36868,-5.89882 0.55301,-8.75606c0.09217,-1.4747 0.27651,-1.65904 1.65904,-1.75121c1.29037,-0.09217 2.58073,0 3.8711,0c0.73735,0 1.56687,0 2.30423,-0.09217c0.73735,-0.18434 1.84338,-0.82952 1.65904,-2.02772c-0.09217,-0.92169 -0.46085,-1.56687 -1.38254,-1.84338c-0.64518,-0.27651 -1.29037,-0.27651 -1.93555,-0.36868c-2.02772,-0.09217 -4.14761,0 -6.08316,-0.09217c-3.41025,-0.18434 -6.82051,-0.18434 -10.23076,-0.18434c-1.01386,0 -1.93555,0 -2.58073,0.73735c-1.10603,1.1982 -1.01386,2.94941 0.46085,3.50242c0.55301,0.18434 1.65904,0.18434 2.30423,0.18434c1.38254,-0.18434 2.11989,-0.18434 3.31809,0c1.65904,0.18434 1.65904,0.18434 1.56687,1.84338c0,2.30423 -0.46085,4.51628 -0.36868,6.72834c0,6.35966 0,12.71933 0,19.07899c-0.09217,9.03257 0,18.06513 0.55301,27.18987c0,0.92169 -0.18434,1.29037 -1.10603,1.4747c-1.1982,0.18434 -2.21206,0.82952 -2.21206,2.11989c0,1.10603 0.46085,1.65904 1.4747,2.11989c0.46085,0.18434 1.1982,0.27651 1.4747,0.18434c2.11989,-0.09217 4.23978,-0.18434 6.26749,-0.46085c0.82952,-0.09217 1.65904,-0.55301 1.75121,-1.4747c0.18434,-0.82952 0.09217,-1.65904 -0.55301,-2.21206c-0.18434,-0.09217 -0.73735,-0.18434 -0.92169,-0.27651c-1.1982,-0.18434 -1.38254,-1.10603 -1.4747,-2.11989c-0.09217,-0.73735 -0.18434,-1.4747 -0.18434,-2.21206c0,-7.55786 -0.18434,-15.11572 -0.09217,-22.67358c0.09217,-6.26749 -0.27651,-12.44282 -0.09217,-18.61815z" data-paper-data="{&quot;glyphName&quot;:&quot;T&quot;,&quot;glyphIndex&quot;:12,&quot;word&quot;:2,&quot;line&quot;:2}" fill="#C6B661"></path><path d="M295.194,340.50896c1.10603,-4.14761 1.65904,-11.06029 1.84338,-15.4844c0.27651,-6.63617 -0.18434,-10.59944 -0.82952,-17.23561c-0.64518,-6.26749 -2.76507,-12.16631 -5.25364,-17.97296c-0.55301,-1.29037 -1.38254,-2.48856 -2.85724,-3.22592c-3.8711,-2.02772 -9.30907,-0.46085 -11.70547,3.41025c-1.65904,2.85724 -2.30423,6.08316 -2.85724,9.2169c-1.1982,6.72834 -1.65904,13.54885 -1.75121,20.36936c0,5.43797 0.36868,10.87595 1.29037,16.31392c0.55301,3.31809 1.29037,6.63617 2.94941,9.67775c1.38254,2.48856 2.94941,3.77893 5.43797,4.79279c1.4747,0.55301 3.22592,0.73735 4.79279,0.55301c1.01386,-0.18434 2.11989,-0.73735 2.48856,-1.01386c1.4747,-1.10603 4.97713,-3.77893 6.45183,-9.40124zM292.24459,326.22275c-0.18434,2.58073 -0.18434,4.60845 -0.55301,7.28135c-0.09217,0.36868 -0.09217,1.29037 -0.27651,1.93555c-0.92169,5.53014 -3.22592,8.11088 -5.0693,9.58558c-0.92169,0.73735 -1.93555,1.10603 -2.94941,0.82952c-2.21206,-0.73735 -4.23978,-3.68676 -4.79279,-5.89882c-0.55301,-2.21206 -0.64518,-3.04158 -0.92169,-5.3458c-0.55301,-4.14761 -0.82952,-8.38738 -0.82952,-12.62716c-0.09217,-4.79279 0.09217,-9.67775 0.64518,-14.47054c0.46085,-3.8711 1.01386,-7.65003 2.02772,-11.42896c0.55301,-1.93555 1.1982,-3.8711 3.22592,-4.88496c1.93555,-1.10603 3.41025,-0.64518 4.33195,1.29037c0.55301,1.1982 1.4747,4.05544 2.11989,5.89882c1.10603,3.31809 1.84338,6.82051 2.30423,10.4151c0.82952,5.80665 1.01386,11.6133 0.73735,17.41995z" data-paper-data="{&quot;glyphName&quot;:&quot;O&quot;,&quot;glyphIndex&quot;:13,&quot;lastGlyphOfWord&quot;:true,&quot;word&quot;:2,&quot;line&quot;:2}" fill="#C6B661"></path><path d="M326.99232,297.18951c-0.27651,0.27651 -0.18434,-0.92169 -0.18434,-1.38254c0.27651,-2.85724 0.09217,-4.97713 2.02772,-7.09702c0.46085,-0.46085 0.36868,-1.65904 -0.09217,-2.21206c-1.38254,-1.65904 -4.33195,-1.93555 -6.26749,-0.64518c-1.65904,1.10603 -1.75121,2.21206 -0.27651,3.59459c0.64518,0.64518 0.73735,1.29037 0.64518,2.11989c-0.27651,3.04158 -0.27651,4.05544 -0.73735,9.49341c-0.46085,5.80665 -0.55301,10.13859 -0.55301,15.39223c-0.18434,9.76992 -0.36868,19.44767 0.27651,29.21759c0,1.01386 -0.27651,1.65904 -1.1982,2.30423c-1.1982,0.82952 -1.10603,2.30423 0.09217,3.22592c0.55301,0.36868 1.84338,0.64518 2.48856,0.55301c1.93555,0 3.04158,-0.36868 4.79279,-1.10603c1.29037,-0.55301 1.56687,-2.21206 0.55301,-3.22592c-0.27651,-0.27651 -0.73735,-0.55301 -1.1982,-0.64518c-1.10603,-0.27651 -1.38254,-1.01386 -1.38254,-2.02772c0,-2.94941 0,-5.89882 -0.09217,-8.84823c-0.09217,-3.8711 -0.36868,-7.83437 0,-11.70547c0.09217,-1.01386 0.46085,-1.65904 1.4747,-2.21206c6.72834,-3.31809 11.79764,-8.47955 15.66874,-14.83922c1.29037,-2.02772 2.21206,-4.14761 2.3964,-6.544c0.09217,-3.77893 0.09217,-6.35966 -3.50242,-8.47955c-1.4747,-0.92169 -3.31809,-1.01386 -5.62231,-0.36868c-1.56687,0.64518 -3.22592,1.29037 -4.70062,2.21206c-1.56687,0.92169 -3.04158,1.84338 -4.60845,3.22592zM325.97846,311.1992c0.27651,-6.91268 1.29037,-8.47955 3.22592,-10.69161c2.30423,-2.30423 3.41025,-3.04158 5.43797,-4.05544c0.73735,-0.46085 1.56687,-0.73735 2.3964,-0.82952c2.58073,-0.46085 3.77893,0.46085 4.05544,3.04158c0.27651,2.11989 -0.18434,4.05544 -1.29037,5.80665c-2.94941,5.16147 -6.72834,9.58558 -12.07414,12.53499c-0.18434,0.18434 -0.46085,0.36868 -0.64518,0.46085c-0.73735,0.27651 -1.10603,0.09217 -1.10603,-0.64518c0,-1.65904 0,-3.22592 0,-5.62231z" data-paper-data="{&quot;glyphName&quot;:&quot;P&quot;,&quot;glyphIndex&quot;:14,&quot;firstGlyphOfWord&quot;:true,&quot;word&quot;:2,&quot;line&quot;:2}" fill="#C6B661"></path><path d="M348.83639,322.90467c0,0.36868 0,0.73735 0,1.10603c0,6.45183 0.46085,12.8115 2.02772,19.17116c1.01386,4.23978 3.77893,7.00485 8.47955,7.28135c2.30423,0.18434 4.33195,0.27651 7.28135,0.09217c1.10603,0 1.56687,0 2.30423,0.18434c1.84338,0.36868 3.04158,-0.55301 3.04158,-2.48856c-0.09217,-0.82952 -0.36868,-1.75121 -0.46085,-2.6729c-0.27651,-1.01386 -0.92169,-1.65904 -1.93555,-1.65904c-1.01386,0 -1.65904,0.18434 -2.02772,1.01386c-0.46085,0.73735 -0.92169,1.29037 -1.84338,1.29037c-2.02772,-0.09217 -4.05544,0 -6.08316,-0.18434c-1.84338,-0.18434 -3.22592,-1.10603 -3.77893,-3.04158c-0.92169,-3.13375 -1.4747,-6.35966 -1.38254,-9.58558c0.09217,-1.56687 0.09217,-1.65904 1.65904,-1.93555c2.30423,-0.46085 4.70062,-0.82952 7.00485,-1.1982c0.73735,-0.18434 1.29037,0 2.02772,0.36868c1.56687,0.82952 2.85724,0.18434 3.13375,-1.65904c0.27651,-1.38254 0.09217,-2.21206 -0.27651,-3.59459c-0.36868,-1.10603 -1.38254,-2.21206 -2.48856,-2.3964c-1.10603,-0.09217 -1.75121,0.64518 -2.11989,1.4747c-0.18434,0.64518 -0.64518,1.10603 -1.29037,1.29037c-2.21206,0.46085 -4.42411,0.73735 -6.63617,1.01386c-0.92169,0.09217 -1.29037,-0.36868 -1.38254,-1.29037c0,-0.46085 0,-0.92169 0,-1.4747c-0.18434,-5.0693 -0.09217,-10.04643 0.46085,-15.11572c0.46085,-4.33195 0.82952,-7.55786 1.65904,-11.79764c0.18434,-1.1982 0.55301,-2.94941 1.10603,-4.05544c0.27651,-0.73735 1.1982,-1.4747 2.48856,-1.75121c3.59459,-0.82952 4.97713,-0.92169 5.43797,-0.09217c0.82952,1.65904 2.11989,1.84338 3.50242,0.64518c1.4747,-1.38254 2.02772,-4.23978 1.1982,-6.08316c-0.73735,-1.4747 -1.56687,-1.75121 -3.04158,-0.92169c-0.64518,0.27651 -1.10603,0.92169 -1.84338,1.01386c-2.30423,0.27651 -3.8711,0.55301 -6.17533,1.1982c-3.41025,0.82952 -5.0693,1.93555 -6.17533,4.70062c-0.82952,1.84338 -1.38254,3.8711 -1.65904,5.89882c-0.36868,2.58073 -0.73735,5.25364 -1.10603,7.83437c-0.82952,5.80665 -1.01386,11.6133 -1.10603,17.41995zM357.22377,283.64066c0.64518,0.09217 1.38254,-0.46085 1.93555,-0.82952c1.75121,-1.29037 4.05544,-3.13375 5.71448,-4.88496c0.92169,-1.01386 0.73735,-2.21206 0.18434,-2.76507c-0.55301,-0.55301 -1.84338,-0.82952 -2.85724,-0.27651c-1.84338,1.01386 -3.31809,2.6729 -5.0693,4.05544c-0.36868,0.27651 -1.38254,1.1982 -1.56687,1.56687c-0.92169,1.65904 -0.27651,3.13375 1.65904,3.13375z" data-paper-data="{&quot;glyphName&quot;:&quot;É&quot;,&quot;glyphIndex&quot;:15,&quot;word&quot;:2,&quot;line&quot;:2}" fill="#C6B661"></path><path d="M382.29375,305.30038c-0.36868,0.64518 0.09217,-3.41025 0.18434,-5.0693c0.18434,-2.6729 0.36868,-5.3458 0.55301,-8.01871c0.09217,-1.10603 0.46085,-1.93555 1.65904,-2.48856c1.29037,-0.55301 1.4747,-1.56687 0.64518,-2.76507c-0.55301,-0.73735 -1.29037,-0.92169 -2.11989,-0.82952c-1.75121,0.09217 -3.50242,0.46085 -5.16147,0.92169c-1.01386,0.27651 -1.75121,0.73735 -1.84338,1.84338c-0.09217,1.1982 0.64518,1.84338 1.56687,2.02772c1.1982,0.27651 1.29037,1.01386 1.29037,1.93555c-0.18434,2.21206 -0.36868,4.33195 -0.55301,6.45183c-0.36868,4.23978 -0.73735,8.38738 -1.01386,12.62716c-0.27651,4.97713 -0.46085,9.95426 -0.64518,15.02355c-0.18434,5.71448 -0.09217,11.42896 -0.09217,17.05127c0,1.1982 -0.09217,1.84338 -0.92169,2.76507c-0.55301,0.64518 -1.01386,1.75121 -0.55301,2.58073c0.46085,1.01386 1.29037,1.29037 2.30423,1.29037c2.02772,0.09217 3.68676,-0.18434 5.71448,-0.64518c0.73735,-0.18434 1.56687,-0.73735 1.56687,-1.4747c0.18434,-1.1982 -0.36868,-2.02772 -1.65904,-2.3964c-1.56687,-0.46085 -1.56687,-0.46085 -1.56687,-2.11989c-0.09217,-3.13375 -0.27651,-4.60845 -0.27651,-8.75606c-0.09217,-1.75121 -0.09217,-3.77893 0.36868,-3.8711c0.55301,-0.18434 1.01386,0.55301 1.29037,0.92169c2.94941,3.13375 6.544,5.3458 10.69161,6.35966c0.82952,0.18434 1.4747,0.64518 2.11989,1.1982c1.29037,1.10603 2.76507,0.92169 3.8711,-0.46085c0.82952,-1.01386 1.01386,-2.3964 1.1982,-3.68676c0.18434,-0.92169 -0.36868,-1.75121 -1.1982,-2.11989c-0.82952,-0.46085 -1.65904,-0.18434 -2.21206,0.46085c-0.73735,0.82952 -1.56687,0.73735 -2.58073,0.55301c-2.76507,-0.55301 -4.97713,-2.30423 -7.00485,-4.05544c-1.1982,-1.01386 -2.30423,-2.21206 -3.41025,-3.50242c-1.1982,-1.38254 -1.38254,-1.75121 0.55301,-2.94941c1.38254,-0.82952 2.85724,-1.4747 4.14761,-2.3964c5.3458,-3.96327 8.9404,-7.09702 12.25848,-12.25848c2.58073,-4.05544 3.50242,-9.58558 2.76507,-14.37837c-0.18434,-1.38254 -0.82952,-2.48856 -2.21206,-3.22592c-2.11989,-1.1982 -4.60845,-1.4747 -7.18919,-0.36868c-3.41025,1.29037 -5.62231,3.41025 -7.83437,6.63617c-1.84338,2.3964 -3.13375,4.79279 -4.70062,7.18919zM382.84676,319.49441c0.46085,-2.94941 0.73735,-5.62231 1.65904,-8.57172c1.4747,-4.42411 3.77893,-7.83437 6.544,-11.52113c1.10603,-1.4747 2.76507,-3.04158 4.51628,-3.96327c0.55301,-0.27651 1.1982,-0.36868 1.84338,-0.36868c1.29037,0 2.30423,0.82952 2.48856,2.02772c0.46085,3.04158 0.27651,6.26749 -1.4747,9.30907c-1.4747,2.48856 -3.22592,4.70062 -5.3458,6.72834c-2.58073,2.3964 -5.3458,4.79279 -8.57172,6.35966c-0.46085,0.18434 -0.82952,0.36868 -1.29037,0.55301c-0.09217,0 -0.46085,0 -0.36868,-0.55301z" data-paper-data="{&quot;glyphName&quot;:&quot;R&quot;,&quot;glyphIndex&quot;:16,&quot;word&quot;:2,&quot;line&quot;:2}" fill="#C6B661"></path><path d="M407.91674,322.90467c0,0.36868 0,0.73735 0,1.10603c0,6.45183 0.46085,12.8115 2.02772,19.17116c1.01386,4.23978 3.77893,7.00485 8.47955,7.28135c2.30423,0.18434 4.33195,0.27651 7.28135,0.09217c1.10603,0 1.56687,0 2.30423,0.18434c1.84338,0.36868 3.04158,-0.55301 3.04158,-2.48856c-0.09217,-0.82952 -0.36868,-1.75121 -0.46085,-2.6729c-0.27651,-1.01386 -0.92169,-1.65904 -1.93555,-1.65904c-1.01386,0 -1.65904,0.18434 -2.02772,1.01386c-0.46085,0.73735 -0.92169,1.29037 -1.84338,1.29037c-2.02772,-0.09217 -4.05544,0 -6.08316,-0.18434c-1.84338,-0.18434 -3.22592,-1.10603 -3.77893,-3.04158c-0.92169,-3.13375 -1.4747,-6.35966 -1.38254,-9.58558c0.09217,-1.56687 0.09217,-1.65904 1.65904,-1.93555c2.30423,-0.46085 4.70062,-0.82952 7.00485,-1.1982c0.73735,-0.18434 1.29037,0 2.02772,0.36868c1.56687,0.82952 2.85724,0.18434 3.13375,-1.65904c0.27651,-1.38254 0.09217,-2.21206 -0.27651,-3.59459c-0.36868,-1.10603 -1.38254,-2.21206 -2.48856,-2.3964c-1.10603,-0.09217 -1.75121,0.64518 -2.11989,1.4747c-0.18434,0.64518 -0.64518,1.10603 -1.29037,1.29037c-2.21206,0.46085 -4.42411,0.73735 -6.63617,1.01386c-0.92169,0.09217 -1.29037,-0.36868 -1.38254,-1.29037c0,-0.46085 0,-0.92169 0,-1.4747c-0.18434,-5.0693 -0.09217,-10.04643 0.46085,-15.11572c0.46085,-4.33195 0.82952,-7.55786 1.65904,-11.79764c0.18434,-1.1982 0.55301,-2.94941 1.10603,-4.05544c0.27651,-0.73735 1.1982,-1.4747 2.48856,-1.75121c3.59459,-0.82952 4.97713,-0.92169 5.43797,-0.09217c0.82952,1.65904 2.11989,1.84338 3.50242,0.64518c1.4747,-1.38254 2.02772,-4.23978 1.1982,-6.08316c-0.73735,-1.4747 -1.56687,-1.75121 -3.04158,-0.92169c-0.64518,0.27651 -1.10603,0.92169 -1.84338,1.01386c-2.30423,0.27651 -3.8711,0.55301 -6.17533,1.1982c-3.41025,0.82952 -5.0693,1.93555 -6.17533,4.70062c-0.82952,1.84338 -1.38254,3.8711 -1.65904,5.89882c-0.36868,2.58073 -0.73735,5.25364 -1.10603,7.83437c-0.82952,5.80665 -1.01386,11.6133 -1.10603,17.41995z" data-paper-data="{&quot;glyphName&quot;:&quot;E&quot;,&quot;glyphIndex&quot;:17,&quot;word&quot;:2,&quot;line&quot;:2}" fill="#C6B661"></path><path d="M439.8994,290.55333c1.4747,0.09217 4.88496,0.09217 5.71448,0.09217c0.73735,0 1.01386,0.36868 0.92169,1.10603c-0.09217,0.46085 -0.09217,0.92169 -0.18434,1.38254c-0.92169,4.14761 -1.84338,8.29521 -2.76507,12.44282c-0.73735,3.68676 -4.42411,20.46153 -5.3458,25.16215c-0.82952,4.14761 -1.84338,8.29521 -2.6729,12.35065c-0.27651,1.1982 -0.46085,2.30423 -0.55301,3.50242c-0.09217,2.02772 0.46085,2.58073 2.3964,3.04158c3.31809,0.82952 6.82051,1.10603 9.95426,0.55301c0.64518,-0.18434 1.38254,-0.18434 1.84338,0.55301c0.55301,1.10603 1.56687,1.1982 2.6729,0.82952c1.10603,-0.27651 1.29037,-1.1982 1.4747,-2.21206c0.18434,-1.75121 0,-3.50242 -0.27651,-5.25364c-0.18434,-1.4747 -1.29037,-2.3964 -2.58073,-2.21206c-1.1982,0.09217 -1.84338,0.82952 -1.75121,2.3964c0,1.10603 -0.36868,1.4747 -1.38254,1.65904c-1.84338,0.27651 -3.59459,0.36868 -5.43797,0.18434c-1.84338,-0.18434 -2.3964,-0.82952 -1.84338,-2.58073c0.46085,-1.4747 0.64518,-2.94941 1.01386,-4.42411c1.1982,-5.16147 5.99099,-26.45252 8.9404,-40.09353c0.55301,-2.6729 1.38254,-5.3458 1.65904,-8.01871c0.36868,-3.77893 0.73735,-5.43797 -4.60845,-4.79279c-2.02772,0.27651 -3.96327,0.18434 -5.99099,0.18434c-1.1982,0 -2.30423,-0.27651 -3.31809,-1.10603c-2.02772,-1.56687 -3.50242,-0.73735 -3.8711,1.75121c-0.18434,1.4747 0,2.85724 0.18434,4.33195c0.09217,0.92169 0.82952,1.29037 1.65904,1.29037c0.92169,-0.09217 1.84338,-0.27651 2.21206,-1.29037c0.36868,-0.92169 0.92169,-0.92169 1.93555,-0.82952z" data-paper-data="{&quot;glyphName&quot;:&quot;Z&quot;,&quot;glyphIndex&quot;:18,&quot;lastGlyphOfWord&quot;:true,&quot;word&quot;:2,&quot;line&quot;:2,&quot;lastGlyphOfSecondLine&quot;:true}" fill="#C6B661"></path></g></g></g></svg>