<svg xmlns:mydata="http://www.w3.org/2000/svg" mydata:contrastcolor="ffffff" mydata:template="SingleColorHex1" mydata:presentation="2.5" mydata:layouttype="undefined" mydata:specialfontid="undefined" mydata:id1="449" mydata:id2="093" mydata:companyname="Gestión Ernesto Pérez" mydata:companytagline="" version="1.1" xmlns="http://www.w3.org/2000/svg" xmlns:xlink="http://www.w3.org/1999/xlink" viewBox="0 0 550 470" width="550" height="470"><g fill="#00843D" fill-rule="none" stroke="none" stroke-width="1" stroke-linecap="butt" stroke-linejoin="miter" stroke-miterlimit="10" stroke-dasharray="" stroke-dashoffset="0" font-family="none" font-weight="none" font-size="none" text-anchor="none" style="mix-blend-mode: normal"><g data-paper-data="{&quot;isGlobalGroup&quot;:true,&quot;bounds&quot;:{&quot;x&quot;:64.99999999999997,&quot;y&quot;:151.21531933305147,&quot;width&quot;:420,&quot;height&quot;:167.569361333897}}" fill="#00843D"><g data-paper-data="{&quot;stacked&quot;:true,&quot;isPrimaryText&quot;:true}" fill-rule="nonzero" fill="#00843D"><path d="M288.57388,230.12043c-0.21898,-1.31389 -0.87592,-1.97083 -1.86134,-2.2993c-0.65694,-0.21898 -1.86134,0 -2.51828,0.21898c-3.28472,0.98542 -6.45994,1.75185 -10.07313,2.2993c-0.32847,0 -0.65694,0.10949 -0.98542,0.21898c-0.98542,0.54745 -1.75185,1.2044 -1.86134,2.40879c-0.10949,1.2044 0.32847,2.2993 1.2044,2.84676c0.87592,0.54745 2.18981,0.32847 3.17523,0.10949c0.87592,-0.21898 1.75185,-0.32847 2.62777,-0.32847c0.76643,-0.10949 1.31389,0.32847 1.2044,1.09491c-0.10949,3.17523 -0.43796,6.35045 -3.17523,8.54027c-2.40879,2.08032 -4.81759,1.86134 -6.67893,-0.65694c-1.42338,-1.75185 -2.40879,-3.83217 -2.95625,-6.02198c-0.54745,-2.18981 -0.87592,-4.37962 -1.09491,-6.67893c-0.32847,-4.7081 -0.54745,-9.3067 -0.32847,-14.0148c0.32847,-5.69351 0.76643,-11.27753 1.75185,-16.86155c0.87592,-4.16064 2.2993,-8.1023 3.61319,-12.04397c0.76643,-2.2993 1.86134,-4.37962 3.28472,-6.45994c0.76643,-0.98542 1.64236,-1.64236 2.62777,-2.18981c1.31389,-0.65694 2.40879,-0.32847 3.28472,0.87592c0.54745,0.87592 0.65694,1.09491 0.87592,1.97083c0.98542,3.17523 1.09491,6.35045 0.43796,9.63517c-0.32847,1.53287 -0.65694,2.73726 -2.51828,3.17523c-2.18981,0.54745 -2.40879,2.62777 -0.76643,4.16064c0.65694,0.65694 1.42338,0.98542 2.2993,1.2044c0.98542,0.32847 1.64236,0.54745 2.62777,0.87592c1.42338,0.43796 2.95625,0.21898 3.94166,-1.09491c0.87592,-1.09491 0.54745,-2.18981 -0.32847,-3.06574c-0.87592,-0.87592 -0.87592,-1.75185 -0.43796,-2.84676c1.42338,-3.83217 1.09491,-7.77383 0.43796,-11.71549c-0.65694,-3.94166 -2.18981,-6.56944 -5.69351,-8.32129c-2.2993,-1.2044 -5.25555,-0.98542 -7.33587,0.32847c-2.40879,1.42338 -4.27013,3.28472 -5.69351,5.803c-3.5037,6.67893 -5.69351,13.79581 -6.89791,21.13168c-1.42338,8.75925 -1.75185,17.62799 -1.09491,26.60621c0.21898,3.72268 0.54745,7.33587 1.53287,10.94906c1.09491,3.94166 2.84676,7.11689 5.803,9.85415c1.75185,1.64236 3.94166,2.18981 6.78842,1.97083c2.84676,-0.21898 5.25555,-1.53287 7.33587,-3.72268c3.17523,-3.28472 4.16064,-8.21179 4.05115,-11.71549c-0.10949,-1.75185 0.10949,-2.95625 1.75185,-3.72268c0.98542,-0.43796 1.86134,-1.42338 1.64236,-2.51828z" data-paper-data="{&quot;glyphName&quot;:&quot;G&quot;,&quot;glyphIndex&quot;:0,&quot;firstGlyphOfWord&quot;:true,&quot;word&quot;:1,&quot;line&quot;:1,&quot;firstGlyphOfFirstLine&quot;:true}" fill="#00843D"></path><path d="M293.39146,218.51443c0,0.43796 0,0.87592 0,1.31389c0,7.66434 0.54745,15.21919 2.40879,22.77404c1.2044,5.03657 4.48911,8.32129 10.07313,8.64976c2.73726,0.21898 5.14606,0.32847 8.64976,0.10949c1.31389,0 1.86134,0 2.73726,0.21898c2.18981,0.43796 3.61319,-0.65694 3.61319,-2.95625c-0.10949,-0.98542 -0.43796,-2.08032 -0.54745,-3.17523c-0.32847,-1.2044 -1.09491,-1.97083 -2.2993,-1.97083c-1.2044,0 -1.97083,0.21898 -2.40879,1.2044c-0.54745,0.87592 -1.09491,1.53287 -2.18981,1.53287c-2.40879,-0.10949 -4.81759,0 -7.22638,-0.21898c-2.18981,-0.21898 -3.83217,-1.31389 -4.48911,-3.61319c-1.09491,-3.72268 -1.75185,-7.55485 -1.64236,-11.38702c0.10949,-1.86134 0.10949,-1.97083 1.97083,-2.2993c2.73726,-0.54745 5.58402,-0.98542 8.32129,-1.42338c0.87592,-0.21898 1.53287,0 2.40879,0.43796c1.86134,0.98542 3.39421,0.21898 3.72268,-1.97083c0.32847,-1.64236 0.10949,-2.62777 -0.32847,-4.27013c-0.43796,-1.31389 -1.64236,-2.62777 -2.95625,-2.84676c-1.31389,-0.10949 -2.08032,0.76643 -2.51828,1.75185c-0.21898,0.76643 -0.76643,1.31389 -1.53287,1.53287c-2.62777,0.54745 -5.25555,0.87592 -7.88332,1.2044c-1.09491,0.10949 -1.53287,-0.43796 -1.64236,-1.53287c0,-0.54745 0,-1.09491 0,-1.75185c-0.21898,-6.02198 -0.10949,-11.93447 0.54745,-17.95646c0.54745,-5.14606 0.98542,-8.97823 1.97083,-14.0148c0.21898,-1.42338 0.65694,-3.5037 1.31389,-4.81759c0.32847,-0.87592 1.42338,-1.75185 2.95625,-2.08032c4.27013,-0.98542 5.91249,-1.09491 6.45994,-0.10949c0.98542,1.97083 2.51828,2.18981 4.16064,0.76643c1.75185,-1.64236 2.40879,-5.03657 1.42338,-7.22638c-0.87592,-1.75185 -1.86134,-2.08032 -3.61319,-1.09491c-0.76643,0.32847 -1.31389,1.09491 -2.18981,1.2044c-2.73726,0.32847 -4.5986,0.65694 -7.33587,1.42338c-4.05115,0.98542 -6.02198,2.2993 -7.33587,5.58402c-0.98542,2.18981 -1.64236,4.5986 -1.97083,7.0074c-0.43796,3.06574 -0.87592,6.24096 -1.31389,9.3067c-0.98542,6.89791 -1.2044,13.79581 -1.31389,20.69372z" data-paper-data="{&quot;glyphName&quot;:&quot;E&quot;,&quot;glyphIndex&quot;:1,&quot;word&quot;:1,&quot;line&quot;:1}" fill="#00843D"></path><path d="M353.72078,221.03271c-1.75185,-4.7081 -3.94166,-9.19721 -6.35045,-13.68632c-2.73726,-5.14606 -5.803,-9.96364 -8.75925,-15.00021c-1.2044,-2.18981 -2.18981,-4.48911 -2.84676,-6.78842c-0.32847,-1.2044 -0.43796,-2.40879 -0.10949,-3.61319c0.43796,-2.18981 2.08032,-2.84676 3.94166,-1.42338c2.40879,2.08032 4.27013,4.37962 4.05115,7.88332c-0.10949,1.86134 1.09491,2.84676 2.95625,2.51828c1.97083,-0.21898 3.61319,-1.31389 5.03657,-2.73726c1.42338,-1.75185 1.2044,-3.5037 -0.87592,-4.48911c-1.2044,-0.54745 -2.18981,-0.98542 -2.95625,-2.08032c-2.2993,-3.5037 -4.81759,-6.56944 -9.08772,-7.11689c-3.94166,-0.43796 -7.33587,1.31389 -8.54027,5.14606c-0.87592,2.95625 -0.76643,5.91249 0.21898,8.75925c1.09491,2.95625 2.40879,5.803 4.16064,8.54027c2.08032,3.39421 4.16064,7.0074 6.24096,10.5111c2.08032,3.39421 3.72268,7.11689 5.36504,10.73008c1.53287,3.5037 3.06574,5.69351 3.17523,10.29212c0,1.64236 0,2.73726 -0.10949,3.72268c-0.21898,4.5986 -1.86134,9.85415 -6.56944,12.8104c-4.92708,3.28472 -9.41619,1.2044 -11.38702,-3.94166c-1.53287,-3.83217 -0.98542,-7.88332 1.31389,-11.49651c1.31389,-1.97083 2.73726,-3.61319 5.58402,-2.84676c2.08032,0.54745 3.17523,-1.09491 2.51828,-3.17523c-0.65694,-1.97083 -2.08032,-3.5037 -3.72268,-4.7081c-2.40879,-1.75185 -5.03657,-0.43796 -5.14606,2.51828c0,1.09491 -0.54745,1.53287 -1.09491,2.18981c-3.94166,3.72268 -6.13147,8.32129 -6.45994,13.68632c-0.32847,6.24096 2.51828,10.29212 7.55485,13.46734c1.86134,1.09491 5.36504,1.42338 8.64976,0.87592c1.31389,-0.10949 3.83217,-1.09491 5.14606,-1.97083c4.92708,-3.5037 7.88332,-7.66434 8.86874,-14.0148c0.76643,-4.92708 0.98542,-9.85415 -0.76643,-14.56225z" data-paper-data="{&quot;glyphName&quot;:&quot;S&quot;,&quot;glyphIndex&quot;:2,&quot;word&quot;:1,&quot;line&quot;:1}" fill="#00843D"></path><path d="M374.74297,192.56516c0.21898,-3.5037 0.43796,-7.0074 0.65694,-10.40161c0.10949,-1.75185 0.32847,-1.97083 1.97083,-2.08032c1.53287,-0.10949 3.06574,0 4.5986,0c0.87592,0 1.86134,0 2.73726,-0.10949c0.87592,-0.21898 2.18981,-0.98542 1.97083,-2.40879c-0.10949,-1.09491 -0.54745,-1.86134 -1.64236,-2.18981c-0.76643,-0.32847 -1.53287,-0.32847 -2.2993,-0.43796c-2.40879,-0.10949 -4.92708,0 -7.22638,-0.10949c-4.05115,-0.21898 -8.1023,-0.21898 -12.15346,-0.21898c-1.2044,0 -2.2993,0 -3.06574,0.87592c-1.31389,1.42338 -1.2044,3.5037 0.54745,4.16064c0.65694,0.21898 1.97083,0.21898 2.73726,0.21898c1.64236,-0.21898 2.51828,-0.21898 3.94166,0c1.97083,0.21898 1.97083,0.21898 1.86134,2.18981c0,2.73726 -0.54745,5.36504 -0.43796,7.99281c0,7.55485 0,15.1097 0,22.66455c-0.10949,10.73008 0,21.46016 0.65694,32.29972c0,1.09491 -0.21898,1.53287 -1.31389,1.75185c-1.42338,0.21898 -2.62777,0.98542 -2.62777,2.51828c0,1.31389 0.54745,1.97083 1.75185,2.51828c0.54745,0.21898 1.42338,0.32847 1.75185,0.21898c2.51828,-0.10949 5.03657,-0.21898 7.44536,-0.54745c0.98542,-0.10949 1.97083,-0.65694 2.08032,-1.75185c0.21898,-0.98542 0.10949,-1.97083 -0.65694,-2.62777c-0.21898,-0.10949 -0.87592,-0.21898 -1.09491,-0.32847c-1.42338,-0.21898 -1.64236,-1.31389 -1.75185,-2.51828c-0.10949,-0.87592 -0.21898,-1.75185 -0.21898,-2.62777c0,-8.97823 -0.21898,-17.95646 -0.10949,-26.93469c0.10949,-7.44536 -0.32847,-14.78123 -0.10949,-22.1171z" data-paper-data="{&quot;glyphName&quot;:&quot;T&quot;,&quot;glyphIndex&quot;:3,&quot;word&quot;:1,&quot;line&quot;:1}" fill="#00843D"></path><path d="M401.13021,174.71819c-3.06574,0 -5.36504,-0.10949 -7.55485,0c-1.64236,0.10949 -2.84676,1.42338 -2.84676,2.84676c0,1.31389 0.98542,2.18981 2.62777,2.40879c0.21898,0.10949 0.43796,0 0.54745,0.10949c2.18981,0.21898 2.18981,0.21898 2.2993,2.40879c0,0.65694 0,1.2044 0,1.86134c-0.10949,10.62059 -0.21898,21.35067 -0.21898,31.97125c0,9.08772 0.54745,18.06595 1.42338,26.93469c0.21898,2.62777 0.21898,2.73726 -2.51828,2.73726c-1.2044,0 -2.2993,0.21898 -3.28472,0.98542c-1.31389,1.09491 -1.2044,2.95625 0.10949,3.72268c1.09491,0.87592 2.51828,0.98542 3.83217,0.98542c4.37962,0 8.64976,-0.21898 13.02938,-0.32847c0.32847,0 0.65694,-0.10949 0.98542,-0.21898c1.75185,-0.54745 2.18981,-2.08032 1.2044,-3.61319c-0.54745,-0.76643 -1.42338,-1.31389 -2.40879,-1.31389c-1.09491,-0.10949 -2.18981,-0.21898 -3.28472,-0.21898c-1.31389,0 -1.97083,-0.65694 -2.08032,-1.97083c-0.21898,-2.2993 -0.43796,-4.48911 -0.65694,-6.78842c-0.54745,-8.21179 -0.54745,-16.42359 -0.65694,-25.18284c0,-4.81759 0.10949,-8.54027 0.21898,-13.24836c0.10949,-5.36504 0,-10.83957 0.10949,-16.3141c0,-2.2993 0,-2.2993 2.40879,-2.51828c1.53287,-0.10949 2.95625,-0.10949 4.37962,-0.65694c1.09491,-0.32847 1.42338,-1.53287 1.31389,-2.51828c-0.10949,-1.31389 -0.76643,-1.97083 -2.08032,-2.08032c-2.51828,-0.43796 -4.81759,0 -6.89791,0z" data-paper-data="{&quot;glyphName&quot;:&quot;I&quot;,&quot;glyphIndex&quot;:4,&quot;word&quot;:1,&quot;line&quot;:1}" fill="#00843D"></path><path d="M443.83154,239.42713c1.31389,-4.92708 1.97083,-13.13887 2.18981,-18.39442c0.32847,-7.88332 -0.21898,-12.59142 -0.98542,-20.47474c-0.76643,-7.44536 -3.28472,-14.45276 -6.24096,-21.35067c-0.65694,-1.53287 -1.64236,-2.95625 -3.39421,-3.83217c-4.5986,-2.40879 -11.05855,-0.54745 -13.90531,4.05115c-1.97083,3.39421 -2.73726,7.22638 -3.39421,10.94906c-1.42338,7.99281 -1.97083,16.09512 -2.08032,24.19742c0,6.45994 0.43796,12.91989 1.53287,19.37983c0.65694,3.94166 1.53287,7.88332 3.5037,11.49651c1.64236,2.95625 3.5037,4.48911 6.45994,5.69351c1.75185,0.65694 3.83217,0.87592 5.69351,0.65694c1.2044,-0.21898 2.51828,-0.87592 2.95625,-1.2044c1.75185,-1.31389 5.91249,-4.48911 7.66434,-11.16804zM440.32784,222.45609c-0.21898,3.06574 -0.21898,5.47453 -0.65694,8.64976c-0.10949,0.43796 -0.10949,1.53287 -0.32847,2.2993c-1.09491,6.56944 -3.83217,9.63517 -6.02198,11.38702c-1.09491,0.87592 -2.2993,1.31389 -3.5037,0.98542c-2.62777,-0.87592 -5.03657,-4.37962 -5.69351,-7.0074c-0.65694,-2.62777 -0.76643,-3.61319 -1.09491,-6.35045c-0.65694,-4.92708 -0.98542,-9.96364 -0.98542,-15.00021c-0.10949,-5.69351 0.10949,-11.49651 0.76643,-17.19002c0.54745,-4.5986 1.2044,-9.08772 2.40879,-13.57683c0.65694,-2.2993 1.42338,-4.5986 3.83217,-5.803c2.2993,-1.31389 4.05115,-0.76643 5.14606,1.53287c0.65694,1.42338 1.75185,4.81759 2.51828,7.0074c1.31389,3.94166 2.18981,8.1023 2.73726,12.37244c0.98542,6.89791 1.2044,13.79581 0.87592,20.69372zM426.20355,171.87144c0.76643,0.10949 1.64236,-0.54745 2.2993,-0.98542c2.08032,-1.53287 4.81759,-3.72268 6.78842,-5.803c1.09491,-1.2044 0.87592,-2.62777 0.21898,-3.28472c-0.65694,-0.65694 -2.18981,-0.98542 -3.39421,-0.32847c-2.18981,1.2044 -3.94166,3.17523 -6.02198,4.81759c-0.43796,0.32847 -1.64236,1.42338 -1.86134,1.86134c-1.09491,1.97083 -0.32847,3.72268 1.97083,3.72268z" data-paper-data="{&quot;glyphName&quot;:&quot;Ó&quot;,&quot;glyphIndex&quot;:5,&quot;word&quot;:1,&quot;line&quot;:1}" fill="#00843D"></path><path d="M459.3792,189.49942c0.21898,-1.31389 0.87592,-0.32847 0.98542,0.65694c0.65694,2.84676 1.31389,5.803 1.86134,8.64976c0.54745,3.5037 0.87592,7.0074 1.53287,10.40161c0.98542,5.91249 2.08032,11.82498 3.28472,17.62799c1.09491,5.803 2.40879,11.38702 4.37962,16.97104c0.65694,1.75185 1.53287,3.28472 2.51828,4.81759c1.53287,2.51828 3.39421,2.84676 5.36504,0.10949c0.43796,-0.65694 0.76643,-1.64236 0.98542,-1.97083c2.62777,-5.91249 2.95625,-10.62059 3.83217,-16.42359c0.87592,-6.35045 0.87592,-12.70091 0.87592,-19.16085c0,-10.18263 -1.09491,-20.36525 -2.62777,-30.43838c-0.21898,-1.53287 -0.21898,-2.84676 0.76643,-4.27013c0.87592,-1.2044 0.54745,-2.51828 -0.76643,-3.06574c-2.2993,-0.65694 -4.81759,-0.98542 -7.11689,-0.10949c-0.87592,0.32847 -1.64236,0.76643 -1.75185,1.86134c0,0.98542 0.65694,1.64236 1.53287,1.97083c1.75185,0.43796 2.18981,1.64236 2.40879,3.17523c1.86134,12.15346 3.06574,24.4164 2.62777,36.67935c-0.21898,7.66434 -1.2044,15.1097 -2.73726,22.55506c-0.10949,0.65694 -0.65694,2.73726 -0.98542,1.75185c-0.98542,-2.62777 -1.75185,-5.58402 -2.2993,-8.32129c-0.98542,-4.81759 -1.86134,-8.32129 -2.84676,-13.79581c-1.64236,-9.52568 -2.95625,-19.05136 -5.25555,-28.13908c-0.32847,-1.42338 -0.98542,-3.94166 -1.31389,-5.47453c-0.54745,-2.84676 -0.98542,-4.16064 -1.86134,-7.0074c-0.43796,-1.64236 -1.31389,-2.95625 -2.62777,-2.84676c-1.31389,0 -2.62777,0.21898 -3.5037,1.97083c-0.76643,1.53287 -1.31389,4.27013 -1.64236,6.45994c-1.09491,7.55485 -2.08032,15.21919 -2.08032,22.88353c-0.10949,4.16064 0,8.32129 0,12.48193c-0.10949,8.32129 0.43796,16.53308 1.75185,24.74487c0.21898,1.2044 0.10949,2.08032 -1.2044,2.73726c-1.64236,0.87592 -1.75185,2.40879 -0.65694,3.94166c0.54745,0.76643 1.42338,1.42338 2.51828,1.64236c1.86134,0.32847 2.95625,0.43796 4.81759,0.21898c0.76643,-0.10949 2.2993,-0.43796 2.84676,-0.87592c0.65694,-0.65694 1.42338,-1.42338 1.2044,-2.51828c-0.21898,-1.09491 -0.87592,-1.86134 -2.08032,-1.97083c-1.31389,-0.10949 -1.53287,-0.87592 -1.75185,-1.86134c-0.87592,-3.83217 -1.09491,-7.77383 -1.31389,-11.606c-0.32847,-5.58402 -0.65694,-11.05855 -0.54745,-16.53308c0,-0.65694 -0.10949,-10.18263 -0.10949,-12.04397c0.21898,-4.16064 0.54745,-8.43078 0.54745,-10.62059c0.10949,-1.75185 0.21898,-3.94166 0.43796,-5.25555z" data-paper-data="{&quot;glyphName&quot;:&quot;N&quot;,&quot;glyphIndex&quot;:6,&quot;lastGlyphOfWord&quot;:true,&quot;word&quot;:1,&quot;line&quot;:1,&quot;lastGlyphOfFirstLine&quot;:true}" fill="#00843D"></path><path d="M259.34384,290.58538c0,0.23313 0,0.46626 0,0.69938c0,4.07973 0.29141,8.10118 1.2822,12.12264c0.6411,2.68097 2.38956,4.42942 5.36194,4.60427c1.45705,0.11656 2.73925,0.17485 4.60427,0.05828c0.69938,0 0.99079,0 1.45705,0.11656c1.16564,0.23313 1.9233,-0.34969 1.9233,-1.57361c-0.05828,-0.52454 -0.23313,-1.10736 -0.29141,-1.69018c-0.17485,-0.6411 -0.58282,-1.04907 -1.22392,-1.04907c-0.6411,0 -1.04907,0.11656 -1.2822,0.6411c-0.29141,0.46626 -0.58282,0.81595 -1.16564,0.81595c-1.2822,-0.05828 -2.5644,0 -3.84661,-0.11656c-1.16564,-0.11656 -2.03987,-0.69938 -2.38956,-1.9233c-0.58282,-1.98158 -0.93251,-4.02145 -0.87423,-6.06132c0.05828,-0.99079 0.05828,-1.04907 1.04907,-1.22392c1.45705,-0.29141 2.97238,-0.52454 4.42942,-0.75766c0.46626,-0.11656 0.81595,0 1.2822,0.23313c0.99079,0.52454 1.80674,0.11656 1.98158,-1.04907c0.17485,-0.87423 0.05828,-1.39877 -0.17485,-2.27299c-0.23313,-0.69938 -0.87423,-1.39877 -1.57361,-1.51533c-0.69938,-0.05828 -1.10736,0.40797 -1.34048,0.93251c-0.11656,0.40797 -0.40797,0.69938 -0.81595,0.81595c-1.39877,0.29141 -2.79753,0.46626 -4.1963,0.6411c-0.58282,0.05828 -0.81595,-0.23313 -0.87423,-0.81595c0,-0.29141 0,-0.58282 0,-0.93251c-0.11656,-3.2055 -0.05828,-6.35273 0.29141,-9.55823c0.29141,-2.73925 0.52454,-4.77912 1.04907,-7.46008c0.11656,-0.75766 0.34969,-1.86502 0.69938,-2.5644c0.17485,-0.46626 0.75766,-0.93251 1.57361,-1.10736c2.27299,-0.52454 3.14722,-0.58282 3.43863,-0.05828c0.52454,1.04907 1.34048,1.16564 2.21471,0.40797c0.93251,-0.87423 1.2822,-2.68097 0.75766,-3.84661c-0.46626,-0.93251 -0.99079,-1.10736 -1.9233,-0.58282c-0.40797,0.17485 -0.69938,0.58282 -1.16564,0.6411c-1.45705,0.17485 -2.44784,0.34969 -3.90489,0.75766c-2.15643,0.52454 -3.2055,1.22392 -3.90489,2.97238c-0.52454,1.16564 -0.87423,2.44784 -1.04907,3.73004c-0.23313,1.63189 -0.46626,3.32207 -0.69938,4.95396c-0.52454,3.67176 -0.6411,7.34352 -0.69938,11.01528z" data-paper-data="{&quot;glyphName&quot;:&quot;E&quot;,&quot;glyphIndex&quot;:7,&quot;firstGlyphOfWord&quot;:true,&quot;word&quot;:2,&quot;line&quot;:2,&quot;firstGlyphOfSecondLine&quot;:true}" fill="#00843D"></path><path d="M280.50017,279.45354c-0.23313,0.40797 0.05828,-2.15643 0.11656,-3.2055c0.11656,-1.69018 0.23313,-3.38035 0.34969,-5.07053c0.05828,-0.69938 0.29141,-1.22392 1.04907,-1.57361c0.81595,-0.34969 0.93251,-0.99079 0.40797,-1.74846c-0.34969,-0.46626 -0.81595,-0.58282 -1.34048,-0.52454c-1.10736,0.05828 -2.21471,0.29141 -3.26379,0.58282c-0.6411,0.17485 -1.10736,0.46626 -1.16564,1.16564c-0.05828,0.75766 0.40797,1.16564 0.99079,1.2822c0.75766,0.17485 0.81595,0.6411 0.81595,1.22392c-0.11656,1.39877 -0.23313,2.73925 -0.34969,4.07973c-0.23313,2.68097 -0.46626,5.30365 -0.6411,7.98462c-0.17485,3.14722 -0.29141,6.29445 -0.40797,9.49995c-0.11656,3.61348 -0.05828,7.22696 -0.05828,10.78215c0,0.75766 -0.05828,1.16564 -0.58282,1.74846c-0.34969,0.40797 -0.6411,1.10736 -0.34969,1.63189c0.29141,0.6411 0.81595,0.81595 1.45705,0.81595c1.2822,0.05828 2.33128,-0.11656 3.61348,-0.40797c0.46626,-0.11656 0.99079,-0.46626 0.99079,-0.93251c0.11656,-0.75766 -0.23313,-1.2822 -1.04907,-1.51533c-0.99079,-0.29141 -0.99079,-0.29141 -0.99079,-1.34048c-0.05828,-1.98158 -0.17485,-2.9141 -0.17485,-5.53678c-0.05828,-1.10736 -0.05828,-2.38956 0.23313,-2.44784c0.34969,-0.11656 0.6411,0.34969 0.81595,0.58282c1.86502,1.98158 4.13802,3.38035 6.7607,4.02145c0.52454,0.11656 0.93251,0.40797 1.34048,0.75766c0.81595,0.69938 1.74846,0.58282 2.44784,-0.29141c0.52454,-0.6411 0.6411,-1.51533 0.75766,-2.33128c0.11656,-0.58282 -0.23313,-1.10736 -0.75766,-1.34048c-0.52454,-0.29141 -1.04907,-0.11656 -1.39877,0.29141c-0.46626,0.52454 -0.99079,0.46626 -1.63189,0.34969c-1.74846,-0.34969 -3.14722,-1.45705 -4.42942,-2.5644c-0.75766,-0.6411 -1.45705,-1.39877 -2.15643,-2.21471c-0.75766,-0.87423 -0.87423,-1.10736 0.34969,-1.86502c0.87423,-0.52454 1.80674,-0.93251 2.62269,-1.51533c3.38035,-2.50612 5.65334,-4.48771 7.75149,-7.75149c1.63189,-2.5644 2.21471,-6.06132 1.74846,-9.09198c-0.11656,-0.87423 -0.52454,-1.57361 -1.39877,-2.03987c-1.34048,-0.75766 -2.9141,-0.93251 -4.54599,-0.23313c-2.15643,0.81595 -3.5552,2.15643 -4.95396,4.1963c-1.16564,1.51533 -1.98158,3.03066 -2.97238,4.54599zM280.84986,288.42895c0.29141,-1.86502 0.46626,-3.5552 1.04907,-5.42022c0.93251,-2.79753 2.38956,-4.95396 4.13802,-7.28524c0.69938,-0.93251 1.74846,-1.9233 2.85581,-2.50612c0.34969,-0.17485 0.75766,-0.23313 1.16564,-0.23313c0.81595,0 1.45705,0.52454 1.57361,1.2822c0.29141,1.9233 0.17485,3.96317 -0.93251,5.88647c-0.93251,1.57361 -2.03987,2.97238 -3.38035,4.25458c-1.63189,1.51533 -3.38035,3.03066 -5.42022,4.02145c-0.29141,0.11656 -0.52454,0.23313 -0.81595,0.34969c-0.05828,0 -0.29141,0 -0.23313,-0.34969z" data-paper-data="{&quot;glyphName&quot;:&quot;R&quot;,&quot;glyphIndex&quot;:8,&quot;word&quot;:2,&quot;line&quot;:2}" fill="#00843D"></path><path d="M300.31601,275.14068c0.11656,-0.69938 0.46626,-0.17485 0.52454,0.34969c0.34969,1.51533 0.69938,3.08894 0.99079,4.60427c0.29141,1.86502 0.46626,3.73004 0.81595,5.53678c0.52454,3.14722 1.10736,6.29445 1.74846,9.38339c0.58282,3.08894 1.2822,6.06132 2.33128,9.03369c0.34969,0.93251 0.81595,1.74846 1.34048,2.5644c0.81595,1.34048 1.80674,1.51533 2.85581,0.05828c0.23313,-0.34969 0.40797,-0.87423 0.52454,-1.04907c1.39877,-3.14722 1.57361,-5.65334 2.03987,-8.74229c0.46626,-3.38035 0.46626,-6.7607 0.46626,-10.19933c0,-5.42022 -0.58282,-10.84043 -1.39877,-16.20237c-0.11656,-0.81595 -0.11656,-1.51533 0.40797,-2.27299c0.46626,-0.6411 0.29141,-1.34048 -0.40797,-1.63189c-1.22392,-0.34969 -2.5644,-0.52454 -3.78832,-0.05828c-0.46626,0.17485 -0.87423,0.40797 -0.93251,0.99079c0,0.52454 0.34969,0.87423 0.81595,1.04907c0.93251,0.23313 1.16564,0.87423 1.2822,1.69018c0.99079,6.46929 1.63189,12.99686 1.39877,19.52444c-0.11656,4.07973 -0.6411,8.0429 -1.45705,12.00607c-0.05828,0.34969 -0.34969,1.45705 -0.52454,0.93251c-0.52454,-1.39877 -0.93251,-2.97238 -1.22392,-4.42942c-0.52454,-2.5644 -0.99079,-4.42942 -1.51533,-7.34352c-0.87423,-5.07053 -1.57361,-10.14105 -2.79753,-14.97845c-0.17485,-0.75766 -0.52454,-2.09815 -0.69938,-2.9141c-0.29141,-1.51533 -0.52454,-2.21471 -0.99079,-3.73004c-0.23313,-0.87423 -0.69938,-1.57361 -1.39877,-1.51533c-0.69938,0 -1.39877,0.11656 -1.86502,1.04907c-0.40797,0.81595 -0.69938,2.27299 -0.87423,3.43863c-0.58282,4.02145 -1.10736,8.10118 -1.10736,12.18092c-0.05828,2.21471 0,4.42942 0,6.64414c-0.05828,4.42942 0.23313,8.80057 0.93251,13.17171c0.11656,0.6411 0.05828,1.10736 -0.6411,1.45705c-0.87423,0.46626 -0.93251,1.2822 -0.34969,2.09815c0.29141,0.40797 0.75766,0.75766 1.34048,0.87423c0.99079,0.17485 1.57361,0.23313 2.5644,0.11656c0.40797,-0.05828 1.22392,-0.23313 1.51533,-0.46626c0.34969,-0.34969 0.75766,-0.75766 0.6411,-1.34048c-0.11656,-0.58282 -0.46626,-0.99079 -1.10736,-1.04907c-0.69938,-0.05828 -0.81595,-0.46626 -0.93251,-0.99079c-0.46626,-2.03987 -0.58282,-4.13802 -0.69938,-6.17788c-0.17485,-2.97238 -0.34969,-5.88647 -0.29141,-8.80057c0,-0.34969 -0.05828,-5.42022 -0.05828,-6.41101c0.11656,-2.21471 0.29141,-4.48771 0.29141,-5.65334c0.05828,-0.93251 0.11656,-2.09815 0.23313,-2.79753z" data-paper-data="{&quot;glyphName&quot;:&quot;N&quot;,&quot;glyphIndex&quot;:9,&quot;word&quot;:2,&quot;line&quot;:2}" fill="#00843D"></path><path d="M317.68402,290.58538c0,0.23313 0,0.46626 0,0.69938c0,4.07973 0.29141,8.10118 1.2822,12.12264c0.6411,2.68097 2.38956,4.42942 5.36194,4.60427c1.45705,0.11656 2.73925,0.17485 4.60427,0.05828c0.69938,0 0.99079,0 1.45705,0.11656c1.16564,0.23313 1.9233,-0.34969 1.9233,-1.57361c-0.05828,-0.52454 -0.23313,-1.10736 -0.29141,-1.69018c-0.17485,-0.6411 -0.58282,-1.04907 -1.22392,-1.04907c-0.6411,0 -1.04907,0.11656 -1.2822,0.6411c-0.29141,0.46626 -0.58282,0.81595 -1.16564,0.81595c-1.2822,-0.05828 -2.5644,0 -3.84661,-0.11656c-1.16564,-0.11656 -2.03987,-0.69938 -2.38956,-1.9233c-0.58282,-1.98158 -0.93251,-4.02145 -0.87423,-6.06132c0.05828,-0.99079 0.05828,-1.04907 1.04907,-1.22392c1.45705,-0.29141 2.97238,-0.52454 4.42942,-0.75766c0.46626,-0.11656 0.81595,0 1.2822,0.23313c0.99079,0.52454 1.80674,0.11656 1.98158,-1.04907c0.17485,-0.87423 0.05828,-1.39877 -0.17485,-2.27299c-0.23313,-0.69938 -0.87423,-1.39877 -1.57361,-1.51533c-0.69938,-0.05828 -1.10736,0.40797 -1.34048,0.93251c-0.11656,0.40797 -0.40797,0.69938 -0.81595,0.81595c-1.39877,0.29141 -2.79753,0.46626 -4.1963,0.6411c-0.58282,0.05828 -0.81595,-0.23313 -0.87423,-0.81595c0,-0.29141 0,-0.58282 0,-0.93251c-0.11656,-3.2055 -0.05828,-6.35273 0.29141,-9.55823c0.29141,-2.73925 0.52454,-4.77912 1.04907,-7.46008c0.11656,-0.75766 0.34969,-1.86502 0.69938,-2.5644c0.17485,-0.46626 0.75766,-0.93251 1.57361,-1.10736c2.27299,-0.52454 3.14722,-0.58282 3.43863,-0.05828c0.52454,1.04907 1.34048,1.16564 2.21471,0.40797c0.93251,-0.87423 1.2822,-2.68097 0.75766,-3.84661c-0.46626,-0.93251 -0.99079,-1.10736 -1.9233,-0.58282c-0.40797,0.17485 -0.69938,0.58282 -1.16564,0.6411c-1.45705,0.17485 -2.44784,0.34969 -3.90489,0.75766c-2.15643,0.52454 -3.2055,1.22392 -3.90489,2.97238c-0.52454,1.16564 -0.87423,2.44784 -1.04907,3.73004c-0.23313,1.63189 -0.46626,3.32207 -0.69938,4.95396c-0.52454,3.67176 -0.6411,7.34352 -0.69938,11.01528z" data-paper-data="{&quot;glyphName&quot;:&quot;E&quot;,&quot;glyphIndex&quot;:10,&quot;word&quot;:2,&quot;line&quot;:2}" fill="#00843D"></path><path d="M349.79735,291.92586c-0.93251,-2.50612 -2.09815,-4.89568 -3.38035,-7.28524c-1.45705,-2.73925 -3.08894,-5.30365 -4.66255,-7.98462c-0.6411,-1.16564 -1.16564,-2.38956 -1.51533,-3.61348c-0.17485,-0.6411 -0.23313,-1.2822 -0.05828,-1.9233c0.23313,-1.16564 1.10736,-1.51533 2.09815,-0.75766c1.2822,1.10736 2.27299,2.33128 2.15643,4.1963c-0.05828,0.99079 0.58282,1.51533 1.57361,1.34048c1.04907,-0.11656 1.9233,-0.69938 2.68097,-1.45705c0.75766,-0.93251 0.6411,-1.86502 -0.46626,-2.38956c-0.6411,-0.29141 -1.16564,-0.52454 -1.57361,-1.10736c-1.22392,-1.86502 -2.5644,-3.49691 -4.8374,-3.78832c-2.09815,-0.23313 -3.90489,0.69938 -4.54599,2.73925c-0.46626,1.57361 -0.40797,3.14722 0.11656,4.66255c0.58282,1.57361 1.2822,3.08894 2.21471,4.54599c1.10736,1.80674 2.21471,3.73004 3.32207,5.59506c1.10736,1.80674 1.98158,3.78832 2.85581,5.71163c0.81595,1.86502 1.63189,3.03066 1.69018,5.4785c0,0.87423 0,1.45705 -0.05828,1.98158c-0.11656,2.44784 -0.99079,5.24537 -3.49691,6.81898c-2.62269,1.74846 -5.01224,0.6411 -6.06132,-2.09815c-0.81595,-2.03987 -0.52454,-4.1963 0.69938,-6.1196c0.69938,-1.04907 1.45705,-1.9233 2.97238,-1.51533c1.10736,0.29141 1.69018,-0.58282 1.34048,-1.69018c-0.34969,-1.04907 -1.10736,-1.86502 -1.98158,-2.50612c-1.2822,-0.93251 -2.68097,-0.23313 -2.73925,1.34048c0,0.58282 -0.29141,0.81595 -0.58282,1.16564c-2.09815,1.98158 -3.26379,4.42942 -3.43863,7.28524c-0.17485,3.32207 1.34048,5.4785 4.02145,7.16867c0.99079,0.58282 2.85581,0.75766 4.60427,0.46626c0.69938,-0.05828 2.03987,-0.58282 2.73925,-1.04907c2.62269,-1.86502 4.1963,-4.07973 4.72083,-7.46008c0.40797,-2.62269 0.52454,-5.24537 -0.40797,-7.75149z" data-paper-data="{&quot;glyphName&quot;:&quot;S&quot;,&quot;glyphIndex&quot;:11,&quot;word&quot;:2,&quot;line&quot;:2}" fill="#00843D"></path><path d="M360.98747,276.77257c0.11656,-1.86502 0.23313,-3.73004 0.34969,-5.53678c0.05828,-0.93251 0.17485,-1.04907 1.04907,-1.10736c0.81595,-0.05828 1.63189,0 2.44784,0c0.46626,0 0.99079,0 1.45705,-0.05828c0.46626,-0.11656 1.16564,-0.52454 1.04907,-1.2822c-0.05828,-0.58282 -0.29141,-0.99079 -0.87423,-1.16564c-0.40797,-0.17485 -0.81595,-0.17485 -1.22392,-0.23313c-1.2822,-0.05828 -2.62269,0 -3.84661,-0.05828c-2.15643,-0.11656 -4.31286,-0.11656 -6.46929,-0.11656c-0.6411,0 -1.22392,0 -1.63189,0.46626c-0.69938,0.75766 -0.6411,1.86502 0.29141,2.21471c0.34969,0.11656 1.04907,0.11656 1.45705,0.11656c0.87423,-0.11656 1.34048,-0.11656 2.09815,0c1.04907,0.11656 1.04907,0.11656 0.99079,1.16564c0,1.45705 -0.29141,2.85581 -0.23313,4.25458c0,4.02145 0,8.0429 0,12.06435c-0.05828,5.71163 0,11.42325 0.34969,17.19316c0,0.58282 -0.11656,0.81595 -0.69938,0.93251c-0.75766,0.11656 -1.39877,0.52454 -1.39877,1.34048c0,0.69938 0.29141,1.04907 0.93251,1.34048c0.29141,0.11656 0.75766,0.17485 0.93251,0.11656c1.34048,-0.05828 2.68097,-0.11656 3.96317,-0.29141c0.52454,-0.05828 1.04907,-0.34969 1.10736,-0.93251c0.11656,-0.52454 0.05828,-1.04907 -0.34969,-1.39877c-0.11656,-0.05828 -0.46626,-0.11656 -0.58282,-0.17485c-0.75766,-0.11656 -0.87423,-0.69938 -0.93251,-1.34048c-0.05828,-0.46626 -0.11656,-0.93251 -0.11656,-1.39877c0,-4.77912 -0.11656,-9.55823 -0.05828,-14.33735c0.05828,-3.96317 -0.17485,-7.86806 -0.05828,-11.77294z" data-paper-data="{&quot;glyphName&quot;:&quot;T&quot;,&quot;glyphIndex&quot;:12,&quot;word&quot;:2,&quot;line&quot;:2}" fill="#00843D"></path><path d="M384.94134,301.71722c0.69938,-2.62269 1.04907,-6.99383 1.16564,-9.79136c0.17485,-4.1963 -0.11656,-6.70242 -0.52454,-10.89872c-0.40797,-3.96317 -1.74846,-7.69321 -3.32207,-11.36497c-0.34969,-0.81595 -0.87423,-1.57361 -1.80674,-2.03987c-2.44784,-1.2822 -5.88647,-0.29141 -7.4018,2.15643c-1.04907,1.80674 -1.45705,3.84661 -1.80674,5.82819c-0.75766,4.25458 -1.04907,8.56744 -1.10736,12.8803c0,3.43863 0.23313,6.87726 0.81595,10.3159c0.34969,2.09815 0.81595,4.1963 1.86502,6.1196c0.87423,1.57361 1.86502,2.38956 3.43863,3.03066c0.93251,0.34969 2.03987,0.46626 3.03066,0.34969c0.6411,-0.11656 1.34048,-0.46626 1.57361,-0.6411c0.93251,-0.69938 3.14722,-2.38956 4.07973,-5.94475zM383.07631,292.68353c-0.11656,1.63189 -0.11656,2.9141 -0.34969,4.60427c-0.05828,0.23313 -0.05828,0.81595 -0.17485,1.22392c-0.58282,3.49691 -2.03987,5.12881 -3.2055,6.06132c-0.58282,0.46626 -1.22392,0.69938 -1.86502,0.52454c-1.39877,-0.46626 -2.68097,-2.33128 -3.03066,-3.73004c-0.34969,-1.39877 -0.40797,-1.9233 -0.58282,-3.38035c-0.34969,-2.62269 -0.52454,-5.30365 -0.52454,-7.98462c-0.05828,-3.03066 0.05828,-6.1196 0.40797,-9.15026c0.29141,-2.44784 0.6411,-4.8374 1.2822,-7.22696c0.34969,-1.22392 0.75766,-2.44784 2.03987,-3.08894c1.22392,-0.69938 2.15643,-0.40797 2.73925,0.81595c0.34969,0.75766 0.93251,2.5644 1.34048,3.73004c0.69938,2.09815 1.16564,4.31286 1.45705,6.58585c0.52454,3.67176 0.6411,7.34352 0.46626,11.01528z" data-paper-data="{&quot;glyphName&quot;:&quot;O&quot;,&quot;glyphIndex&quot;:13,&quot;lastGlyphOfWord&quot;:true,&quot;word&quot;:2,&quot;line&quot;:2}" fill="#00843D"></path><path d="M405.04859,274.32473c-0.17485,0.17485 -0.11656,-0.58282 -0.11656,-0.87423c0.17485,-1.80674 0.05828,-3.14722 1.2822,-4.48771c0.29141,-0.29141 0.23313,-1.04907 -0.05828,-1.39877c-0.87423,-1.04907 -2.73925,-1.22392 -3.96317,-0.40797c-1.04907,0.69938 -1.10736,1.39877 -0.17485,2.27299c0.40797,0.40797 0.46626,0.81595 0.40797,1.34048c-0.17485,1.9233 -0.17485,2.5644 -0.46626,6.00304c-0.29141,3.67176 -0.34969,6.41101 -0.34969,9.73308c-0.11656,6.17788 -0.23313,12.29748 0.17485,18.47536c0,0.6411 -0.17485,1.04907 -0.75766,1.45705c-0.75766,0.52454 -0.69938,1.45705 0.05828,2.03987c0.34969,0.23313 1.16564,0.40797 1.57361,0.34969c1.22392,0 1.9233,-0.23313 3.03066,-0.69938c0.81595,-0.34969 0.99079,-1.39877 0.34969,-2.03987c-0.17485,-0.17485 -0.46626,-0.34969 -0.75766,-0.40797c-0.69938,-0.17485 -0.87423,-0.6411 -0.87423,-1.2822c0,-1.86502 0,-3.73004 -0.05828,-5.59506c-0.05828,-2.44784 -0.23313,-4.95396 0,-7.4018c0.05828,-0.6411 0.29141,-1.04907 0.93251,-1.39877c4.25458,-2.09815 7.46008,-5.36194 9.90792,-9.38339c0.81595,-1.2822 1.39877,-2.62269 1.51533,-4.13802c0.05828,-2.38956 0.05828,-4.02145 -2.21471,-5.36194c-0.93251,-0.58282 -2.09815,-0.6411 -3.5552,-0.23313c-0.99079,0.40797 -2.03987,0.81595 -2.97238,1.39877c-0.99079,0.58282 -1.9233,1.16564 -2.9141,2.03987zM404.40749,283.18358c0.17485,-4.37114 0.81595,-5.36194 2.03987,-6.7607c1.45705,-1.45705 2.15643,-1.9233 3.43863,-2.5644c0.46626,-0.29141 0.99079,-0.46626 1.51533,-0.52454c1.63189,-0.29141 2.38956,0.29141 2.5644,1.9233c0.17485,1.34048 -0.11656,2.5644 -0.81595,3.67176c-1.86502,3.26379 -4.25458,6.06132 -7.63493,7.92634c-0.11656,0.11656 -0.29141,0.23313 -0.40797,0.29141c-0.46626,0.17485 -0.69938,0.05828 -0.69938,-0.40797c0,-1.04907 0,-2.03987 0,-3.5552z" data-paper-data="{&quot;glyphName&quot;:&quot;P&quot;,&quot;glyphIndex&quot;:14,&quot;firstGlyphOfWord&quot;:true,&quot;word&quot;:2,&quot;line&quot;:2}" fill="#00843D"></path><path d="M418.8614,290.58538c0,0.23313 0,0.46626 0,0.69938c0,4.07973 0.29141,8.10118 1.2822,12.12264c0.6411,2.68097 2.38956,4.42942 5.36194,4.60427c1.45705,0.11656 2.73925,0.17485 4.60427,0.05828c0.69938,0 0.99079,0 1.45705,0.11656c1.16564,0.23313 1.9233,-0.34969 1.9233,-1.57361c-0.05828,-0.52454 -0.23313,-1.10736 -0.29141,-1.69018c-0.17485,-0.6411 -0.58282,-1.04907 -1.22392,-1.04907c-0.6411,0 -1.04907,0.11656 -1.2822,0.6411c-0.29141,0.46626 -0.58282,0.81595 -1.16564,0.81595c-1.2822,-0.05828 -2.5644,0 -3.84661,-0.11656c-1.16564,-0.11656 -2.03987,-0.69938 -2.38956,-1.9233c-0.58282,-1.98158 -0.93251,-4.02145 -0.87423,-6.06132c0.05828,-0.99079 0.05828,-1.04907 1.04907,-1.22392c1.45705,-0.29141 2.97238,-0.52454 4.42942,-0.75766c0.46626,-0.11656 0.81595,0 1.2822,0.23313c0.99079,0.52454 1.80674,0.11656 1.98158,-1.04907c0.17485,-0.87423 0.05828,-1.39877 -0.17485,-2.27299c-0.23313,-0.69938 -0.87423,-1.39877 -1.57361,-1.51533c-0.69938,-0.05828 -1.10736,0.40797 -1.34048,0.93251c-0.11656,0.40797 -0.40797,0.69938 -0.81595,0.81595c-1.39877,0.29141 -2.79753,0.46626 -4.1963,0.6411c-0.58282,0.05828 -0.81595,-0.23313 -0.87423,-0.81595c0,-0.29141 0,-0.58282 0,-0.93251c-0.11656,-3.2055 -0.05828,-6.35273 0.29141,-9.55823c0.29141,-2.73925 0.52454,-4.77912 1.04907,-7.46008c0.11656,-0.75766 0.34969,-1.86502 0.69938,-2.5644c0.17485,-0.46626 0.75766,-0.93251 1.57361,-1.10736c2.27299,-0.52454 3.14722,-0.58282 3.43863,-0.05828c0.52454,1.04907 1.34048,1.16564 2.21471,0.40797c0.93251,-0.87423 1.2822,-2.68097 0.75766,-3.84661c-0.46626,-0.93251 -0.99079,-1.10736 -1.9233,-0.58282c-0.40797,0.17485 -0.69938,0.58282 -1.16564,0.6411c-1.45705,0.17485 -2.44784,0.34969 -3.90489,0.75766c-2.15643,0.52454 -3.2055,1.22392 -3.90489,2.97238c-0.52454,1.16564 -0.87423,2.44784 -1.04907,3.73004c-0.23313,1.63189 -0.46626,3.32207 -0.69938,4.95396c-0.52454,3.67176 -0.6411,7.34352 -0.69938,11.01528zM424.16506,265.75729c0.40797,0.05828 0.87423,-0.29141 1.22392,-0.52454c1.10736,-0.81595 2.5644,-1.98158 3.61348,-3.08894c0.58282,-0.6411 0.46626,-1.39877 0.11656,-1.74846c-0.34969,-0.34969 -1.16564,-0.52454 -1.80674,-0.17485c-1.16564,0.6411 -2.09815,1.69018 -3.2055,2.5644c-0.23313,0.17485 -0.87423,0.75766 -0.99079,0.99079c-0.58282,1.04907 -0.17485,1.98158 1.04907,1.98158z" data-paper-data="{&quot;glyphName&quot;:&quot;É&quot;,&quot;glyphIndex&quot;:15,&quot;word&quot;:2,&quot;line&quot;:2}" fill="#00843D"></path><path d="M440.01773,279.45354c-0.23313,0.40797 0.05828,-2.15643 0.11656,-3.2055c0.11656,-1.69018 0.23313,-3.38035 0.34969,-5.07053c0.05828,-0.69938 0.29141,-1.22392 1.04907,-1.57361c0.81595,-0.34969 0.93251,-0.99079 0.40797,-1.74846c-0.34969,-0.46626 -0.81595,-0.58282 -1.34048,-0.52454c-1.10736,0.05828 -2.21471,0.29141 -3.26379,0.58282c-0.6411,0.17485 -1.10736,0.46626 -1.16564,1.16564c-0.05828,0.75766 0.40797,1.16564 0.99079,1.2822c0.75766,0.17485 0.81595,0.6411 0.81595,1.22392c-0.11656,1.39877 -0.23313,2.73925 -0.34969,4.07973c-0.23313,2.68097 -0.46626,5.30365 -0.6411,7.98462c-0.17485,3.14722 -0.29141,6.29445 -0.40797,9.49995c-0.11656,3.61348 -0.05828,7.22696 -0.05828,10.78215c0,0.75766 -0.05828,1.16564 -0.58282,1.74846c-0.34969,0.40797 -0.6411,1.10736 -0.34969,1.63189c0.29141,0.6411 0.81595,0.81595 1.45705,0.81595c1.2822,0.05828 2.33128,-0.11656 3.61348,-0.40797c0.46626,-0.11656 0.99079,-0.46626 0.99079,-0.93251c0.11656,-0.75766 -0.23313,-1.2822 -1.04907,-1.51533c-0.99079,-0.29141 -0.99079,-0.29141 -0.99079,-1.34048c-0.05828,-1.98158 -0.17485,-2.9141 -0.17485,-5.53678c-0.05828,-1.10736 -0.05828,-2.38956 0.23313,-2.44784c0.34969,-0.11656 0.6411,0.34969 0.81595,0.58282c1.86502,1.98158 4.13802,3.38035 6.7607,4.02145c0.52454,0.11656 0.93251,0.40797 1.34048,0.75766c0.81595,0.69938 1.74846,0.58282 2.44784,-0.29141c0.52454,-0.6411 0.6411,-1.51533 0.75766,-2.33128c0.11656,-0.58282 -0.23313,-1.10736 -0.75766,-1.34048c-0.52454,-0.29141 -1.04907,-0.11656 -1.39877,0.29141c-0.46626,0.52454 -0.99079,0.46626 -1.63189,0.34969c-1.74846,-0.34969 -3.14722,-1.45705 -4.42942,-2.5644c-0.75766,-0.6411 -1.45705,-1.39877 -2.15643,-2.21471c-0.75766,-0.87423 -0.87423,-1.10736 0.34969,-1.86502c0.87423,-0.52454 1.80674,-0.93251 2.62269,-1.51533c3.38035,-2.50612 5.65334,-4.48771 7.75149,-7.75149c1.63189,-2.5644 2.21471,-6.06132 1.74846,-9.09198c-0.11656,-0.87423 -0.52454,-1.57361 -1.39877,-2.03987c-1.34048,-0.75766 -2.9141,-0.93251 -4.54599,-0.23313c-2.15643,0.81595 -3.5552,2.15643 -4.95396,4.1963c-1.16564,1.51533 -1.98158,3.03066 -2.97238,4.54599zM440.36742,288.42895c0.29141,-1.86502 0.46626,-3.5552 1.04907,-5.42022c0.93251,-2.79753 2.38956,-4.95396 4.13802,-7.28524c0.69938,-0.93251 1.74846,-1.9233 2.85581,-2.50612c0.34969,-0.17485 0.75766,-0.23313 1.16564,-0.23313c0.81595,0 1.45705,0.52454 1.57361,1.2822c0.29141,1.9233 0.17485,3.96317 -0.93251,5.88647c-0.93251,1.57361 -2.03987,2.97238 -3.38035,4.25458c-1.63189,1.51533 -3.38035,3.03066 -5.42022,4.02145c-0.29141,0.11656 -0.52454,0.23313 -0.81595,0.34969c-0.05828,0 -0.29141,0 -0.23313,-0.34969z" data-paper-data="{&quot;glyphName&quot;:&quot;R&quot;,&quot;glyphIndex&quot;:16,&quot;word&quot;:2,&quot;line&quot;:2}" fill="#00843D"></path><path d="M456.2201,290.58538c0,0.23313 0,0.46626 0,0.69938c0,4.07973 0.29141,8.10118 1.2822,12.12264c0.6411,2.68097 2.38956,4.42942 5.36194,4.60427c1.45705,0.11656 2.73925,0.17485 4.60427,0.05828c0.69938,0 0.99079,0 1.45705,0.11656c1.16564,0.23313 1.9233,-0.34969 1.9233,-1.57361c-0.05828,-0.52454 -0.23313,-1.10736 -0.29141,-1.69018c-0.17485,-0.6411 -0.58282,-1.04907 -1.22392,-1.04907c-0.6411,0 -1.04907,0.11656 -1.2822,0.6411c-0.29141,0.46626 -0.58282,0.81595 -1.16564,0.81595c-1.2822,-0.05828 -2.5644,0 -3.84661,-0.11656c-1.16564,-0.11656 -2.03987,-0.69938 -2.38956,-1.9233c-0.58282,-1.98158 -0.93251,-4.02145 -0.87423,-6.06132c0.05828,-0.99079 0.05828,-1.04907 1.04907,-1.22392c1.45705,-0.29141 2.97238,-0.52454 4.42942,-0.75766c0.46626,-0.11656 0.81595,0 1.2822,0.23313c0.99079,0.52454 1.80674,0.11656 1.98158,-1.04907c0.17485,-0.87423 0.05828,-1.39877 -0.17485,-2.27299c-0.23313,-0.69938 -0.87423,-1.39877 -1.57361,-1.51533c-0.69938,-0.05828 -1.10736,0.40797 -1.34048,0.93251c-0.11656,0.40797 -0.40797,0.69938 -0.81595,0.81595c-1.39877,0.29141 -2.79753,0.46626 -4.1963,0.6411c-0.58282,0.05828 -0.81595,-0.23313 -0.87423,-0.81595c0,-0.29141 0,-0.58282 0,-0.93251c-0.11656,-3.2055 -0.05828,-6.35273 0.29141,-9.55823c0.29141,-2.73925 0.52454,-4.77912 1.04907,-7.46008c0.11656,-0.75766 0.34969,-1.86502 0.69938,-2.5644c0.17485,-0.46626 0.75766,-0.93251 1.57361,-1.10736c2.27299,-0.52454 3.14722,-0.58282 3.43863,-0.05828c0.52454,1.04907 1.34048,1.16564 2.21471,0.40797c0.93251,-0.87423 1.2822,-2.68097 0.75766,-3.84661c-0.46626,-0.93251 -0.99079,-1.10736 -1.9233,-0.58282c-0.40797,0.17485 -0.69938,0.58282 -1.16564,0.6411c-1.45705,0.17485 -2.44784,0.34969 -3.90489,0.75766c-2.15643,0.52454 -3.2055,1.22392 -3.90489,2.97238c-0.52454,1.16564 -0.87423,2.44784 -1.04907,3.73004c-0.23313,1.63189 -0.46626,3.32207 -0.69938,4.95396c-0.52454,3.67176 -0.6411,7.34352 -0.69938,11.01528z" data-paper-data="{&quot;glyphName&quot;:&quot;E&quot;,&quot;glyphIndex&quot;:17,&quot;word&quot;:2,&quot;line&quot;:2}" fill="#00843D"></path><path d="M476.44392,270.12843c0.93251,0.05828 3.08894,0.05828 3.61348,0.05828c0.46626,0 0.6411,0.23313 0.58282,0.69938c-0.05828,0.29141 -0.05828,0.58282 -0.11656,0.87423c-0.58282,2.62269 -1.16564,5.24537 -1.74846,7.86806c-0.46626,2.33128 -2.79753,12.93858 -3.38035,15.91096c-0.52454,2.62269 -1.16564,5.24537 -1.69018,7.80977c-0.17485,0.75766 -0.29141,1.45705 -0.34969,2.21471c-0.05828,1.2822 0.29141,1.63189 1.51533,1.9233c2.09815,0.52454 4.31286,0.69938 6.29445,0.34969c0.40797,-0.11656 0.87423,-0.11656 1.16564,0.34969c0.34969,0.69938 0.99079,0.75766 1.69018,0.52454c0.69938,-0.17485 0.81595,-0.75766 0.93251,-1.39877c0.11656,-1.10736 0,-2.21471 -0.17485,-3.32207c-0.11656,-0.93251 -0.81595,-1.51533 -1.63189,-1.39877c-0.75766,0.05828 -1.16564,0.52454 -1.10736,1.51533c0,0.69938 -0.23313,0.93251 -0.87423,1.04907c-1.16564,0.17485 -2.27299,0.23313 -3.43863,0.11656c-1.16564,-0.11656 -1.51533,-0.52454 -1.16564,-1.63189c0.29141,-0.93251 0.40797,-1.86502 0.6411,-2.79753c0.75766,-3.26379 3.78832,-16.72691 5.65334,-25.35263c0.34969,-1.69018 0.87423,-3.38035 1.04907,-5.07053c0.23313,-2.38956 0.46626,-3.43863 -2.9141,-3.03066c-1.2822,0.17485 -2.50612,0.11656 -3.78832,0.11656c-0.75766,0 -1.45705,-0.17485 -2.09815,-0.69938c-1.2822,-0.99079 -2.21471,-0.46626 -2.44784,1.10736c-0.11656,0.93251 0,1.80674 0.11656,2.73925c0.05828,0.58282 0.52454,0.81595 1.04907,0.81595c0.58282,-0.05828 1.16564,-0.17485 1.39877,-0.81595c0.23313,-0.58282 0.58282,-0.58282 1.22392,-0.52454z" data-paper-data="{&quot;glyphName&quot;:&quot;Z&quot;,&quot;glyphIndex&quot;:18,&quot;lastGlyphOfWord&quot;:true,&quot;word&quot;:2,&quot;line&quot;:2,&quot;lastGlyphOfSecondLine&quot;:true}" fill="#00843D"></path></g><g data-paper-data="{&quot;isIcon&quot;:&quot;true&quot;,&quot;iconType&quot;:&quot;icon&quot;,&quot;rawIconId&quot;:&quot;185803&quot;,&quot;selectedEffects&quot;:{&quot;container&quot;:&quot;&quot;,&quot;transformation&quot;:&quot;&quot;,&quot;pattern&quot;:&quot;&quot;},&quot;isDetailed&quot;:false,&quot;iconStyle&quot;:&quot;standalone&quot;,&quot;bounds&quot;:{&quot;x&quot;:64.99999999999997,&quot;y&quot;:151.21531933305147,&quot;width&quot;:167.48000681089218,&quot;height&quot;:167.569361333897},&quot;fillRule&quot;:&quot;evenodd&quot;,&quot;suitableAsStandaloneIcon&quot;:true}" fill-rule="evenodd" fill="#00843D"><path d="M191.18177,291.68663c6.06444,-4.46959 5.42637,-5.10631 -6.06478,2.23496c-16.5988,11.48912 -53.62318,9.25787 -74.37017,-13.72745c-20.74698,-22.98025 -15.32434,-48.19344 -9.25787,-62.87936c6.06478,-14.68254 43.09051,-24.25675 40.85757,-22.98195c-0.25084,0.14315 -0.65834,0.37508 -1.1823,0.67285c-4.14751,2.35852 -15.59375,8.86726 -14.46006,8.58299c1.27818,-0.31803 15.96241,-4.46621 23.94007,-7.97766c5.95101,-2.61815 10.48338,-2.39668 16.24432,-2.11511c1.96184,0.09588 4.06615,0.19851 6.41758,0.19851c5.20084,0 6.57322,2.11578 7.73931,3.91354c0.90952,1.40242 1.69377,2.61139 4.07154,2.47129c5.42637,-0.31837 9.89459,2.55299 12.76595,5.42637c2.87473,2.87135 4.78964,3.82948 5.42805,7.34094c0.64011,3.51348 6.70454,9.57623 8.93613,9.57623c0.16475,0 0.32276,-0.00168 0.47502,-0.00338c1.91356,-0.02093 2.95508,-0.03241 5.91117,3.51483c1.6482,1.97973 2.35954,6.25991 2.88215,9.4054c0.48886,2.94191 0.81262,4.89193 1.58439,3.04015c0.93753,-2.24307 0.44733,-11.06373 0.07326,-17.78988c-0.26401,-4.7525 -0.47028,-8.45909 -0.07326,-8.06139c0.23025,0.23025 0.51586,1.27413 0.89297,2.65089c1.18939,4.34399 3.2866,12.00228 7.40812,7.88347c5.42467,-5.42805 -11.17278,-23.62374 -15.00226,-27.77192c-2.95204,-3.1968 4.89463,0.23734 8.21601,1.69108c0.98987,0.43315 1.57764,0.69041 1.35819,0.54389c-0.95846,-0.63841 -9.89426,-11.17075 -3.83151,-6.38449c6.06646,4.78795 -1.91322,-7.978 -9.25247,-11.81119c-7.34465,-3.8278 -2.87338,-6.38112 -2.87338,-6.38112c0,0 13.40605,6.06309 4.46654,-3.1914c-8.93781,-9.2578 -48.19547,-18.19559 -55.21838,-18.51384c-7.02122,-0.3183 -59.04955,1.27656 -82.66978,44.6855c-23.6237,43.40888 -3.83147,78.52173 -3.83147,78.52173c0,0 -0.31826,-5.42805 -0.63653,-10.21431c13.72236,39.57737 52.98507,52.98511 52.98507,52.98511c-3.51146,-1.9166 -3.82981,-2.87338 -5.11003,-5.74473c30.00485,11.16906 35.11319,6.3828 31.60173,5.74473c-3.51348,-0.63841 2.87304,-0.63841 2.87304,-0.63841c-20.42862,-0.31837 -44.68537,-10.53267 -58.41315,-33.51462c49.12018,35.72156 79.47851,22.02382 83.62804,20.11059c2.7856,-1.28696 0.96657,-1.42268 0.34099,-1.46961c-0.30587,-0.02262 -0.32613,-0.02431 0.61748,-0.12863c2.87304,-0.31837 7.02291,-5.10631 7.02291,-5.10631l2.55332,-2.55332c2.80079,-2.02328 1.6563,-1.5432 0.45037,-1.03746c-1.26704,0.5314 -2.6016,1.09149 0.50608,-1.19749z" data-paper-data="{&quot;isPathIcon&quot;:true}" fill="#00843D"></path></g></g></g></svg>