<svg width="389" height="263" xmlns="http://www.w3.org/2000/svg" xmlns:xlink="http://www.w3.org/1999/xlink" xml:space="preserve" overflow="hidden"><defs><clipPath id="clip0"><rect x="0" y="0" width="389" height="263"/></clipPath></defs><g clip-path="url(#clip0)"><path d="M142.794 227.281C142.447 225.203 141.409 224.164 139.85 223.645 138.811 223.299 136.907 223.645 135.868 223.991 130.673 225.55 125.652 226.762 119.938 227.627 119.418 227.627 118.899 227.8 118.379 227.974 116.821 228.839 115.609 229.878 115.436 231.783 115.263 233.688 115.955 235.419 117.341 236.285 118.726 237.151 120.804 236.804 122.362 236.458 123.747 236.112 125.132 235.939 126.518 235.939 127.73 235.765 128.595 236.458 128.422 237.67 128.249 242.691 127.73 247.713 123.401 251.176 119.592 254.466 115.782 254.119 112.839 250.137 110.588 247.366 109.029 244.077 108.164 240.614 107.298 237.151 106.778 233.688 106.432 230.051 105.913 222.606 105.566 215.334 105.913 207.888 106.432 198.884 107.125 190.054 108.683 181.223 110.068 174.643 112.319 168.41 114.397 162.176 115.609 158.54 117.341 155.25 119.592 151.961 120.804 150.402 122.189 149.363 123.747 148.498 125.825 147.459 127.556 147.978 128.942 149.883 129.807 151.268 129.981 151.614 130.327 152.999 131.885 158.021 132.058 163.042 131.019 168.237 130.5 170.661 129.981 172.565 127.037 173.258 123.574 174.124 123.228 177.414 125.825 179.838 126.864 180.877 128.076 181.396 129.461 181.742 131.019 182.262 132.058 182.608 133.617 183.128 135.868 183.82 138.292 183.474 139.85 181.396 141.235 179.665 140.716 177.933 139.331 176.548 137.945 175.163 137.945 173.778 138.638 172.046 140.889 165.986 140.37 159.752 139.331 153.519 138.292 147.285 135.868 143.13 130.327 140.359 126.691 138.455 122.016 138.801 118.726 140.879 114.916 143.13 111.973 146.073 109.722 150.056 104.181 160.618 100.718 171.873 98.8135 183.474 96.5625 197.326 96.043 211.351 97.0819 225.55 97.4282 231.437 97.9477 237.151 99.5061 242.865 101.238 249.098 104.008 254.119 108.683 258.448 111.453 261.045 114.916 261.911 119.418 261.565 123.92 261.219 127.73 259.141 131.019 255.678 136.041 250.483 137.599 242.691 137.426 237.151 137.253 234.38 137.599 232.476 140.196 231.264 141.755 230.571 143.14 229.013 142.794 227.281Z" fill="#948946" transform="matrix(1.00001 0 0 1 -91.9989 -110.999)"/><path d="M150.412 208.927C150.412 209.62 150.412 210.312 150.412 211.005 150.412 223.125 151.278 235.073 154.222 247.02 156.126 254.985 161.321 260.18 170.152 260.699 174.48 261.045 178.29 261.219 183.83 260.872 185.908 260.872 186.774 260.872 188.159 261.219 191.622 261.911 193.873 260.18 193.873 256.543 193.7 254.985 193.181 253.254 193.007 251.522 192.488 249.617 191.276 248.405 189.371 248.405 187.467 248.405 186.255 248.752 185.562 250.31 184.696 251.695 183.83 252.734 182.099 252.734 178.29 252.561 174.48 252.734 170.671 252.388 167.208 252.042 164.611 250.31 163.572 246.674 161.84 240.787 160.801 234.727 160.975 228.666 161.148 225.723 161.148 225.55 164.091 225.03 168.42 224.164 172.922 223.472 177.251 222.779 178.636 222.433 179.675 222.779 181.06 223.472 184.004 225.03 186.428 223.818 186.947 220.355 187.467 217.758 187.12 216.199 186.428 213.602 185.735 211.524 183.83 209.447 181.753 209.1 179.675 208.927 178.463 210.312 177.77 211.871 177.424 213.083 176.558 213.948 175.346 214.295 171.19 215.16 167.035 215.68 162.879 216.199 161.148 216.373 160.455 215.507 160.282 213.775 160.282 212.91 160.282 212.044 160.282 211.005 159.936 201.482 160.109 192.131 161.148 182.608 162.013 174.47 162.706 168.41 164.264 160.445 164.611 158.194 165.303 154.904 166.342 152.826 166.862 151.441 168.593 150.056 171.017 149.536 177.77 147.978 180.367 147.805 181.233 149.363 182.791 152.48 185.216 152.826 187.813 150.575 190.583 147.978 191.622 142.61 190.064 139.147 188.679 136.377 187.12 135.858 184.35 137.416 183.138 137.935 182.272 139.147 180.887 139.321 176.558 139.84 173.615 140.359 169.286 141.572 162.879 143.13 159.762 145.208 157.685 150.402 156.126 153.865 155.087 157.675 154.568 161.484 153.875 166.332 153.183 171.353 152.49 176.202 150.932 187.11 150.586 198.019 150.412 208.927Z" fill="#948946" transform="matrix(1.00001 0 0 1 -91.9989 -110.999)"/><path d="M245.818 212.91C243.048 205.464 239.585 198.365 235.776 191.266 231.447 183.128 226.599 175.509 221.924 167.544 220.019 164.081 218.46 160.445 217.422 156.809 216.902 154.904 216.729 152.999 217.248 151.095 217.941 147.632 220.538 146.593 223.482 148.844 227.291 152.134 230.235 155.77 229.888 161.311 229.715 164.254 231.62 165.813 234.564 165.293 237.68 164.947 240.277 163.215 242.528 160.964 244.779 158.194 244.433 155.424 241.143 153.865 239.239 152.999 237.68 152.307 236.468 150.575 232.832 145.035 228.85 140.186 222.097 139.321 215.863 138.628 210.496 141.398 208.591 147.459 207.206 152.134 207.379 156.809 208.937 161.311 210.669 165.986 212.747 170.488 215.517 174.816 218.807 180.184 222.097 185.898 225.387 191.439 228.676 196.807 231.274 202.694 233.871 208.408 236.295 213.948 238.719 217.411 238.892 224.684 238.892 227.281 238.892 229.013 238.719 230.571 238.373 237.843 235.776 246.154 228.33 250.829 220.538 256.024 213.439 252.734 210.322 244.596 207.898 238.536 208.764 232.129 212.4 226.415 214.478 223.299 216.729 220.701 221.231 221.913 224.521 222.779 226.252 220.182 225.213 216.892 224.174 213.775 221.924 211.351 219.326 209.447 215.517 206.676 211.361 208.754 211.188 213.429 211.188 215.16 210.322 215.853 209.457 216.892 203.223 222.779 199.76 230.051 199.241 238.536 198.721 248.405 203.223 254.812 211.188 259.833 214.132 261.565 219.673 262.084 224.867 261.219 226.945 261.045 230.927 259.487 233.005 258.102 240.797 252.561 245.472 245.981 247.03 235.939 248.242 228.147 248.589 220.355 245.818 212.91Z" fill="#948946" transform="matrix(1.00001 0 0 1 -91.9989 -110.999)"/><path d="M279.063 167.89C279.409 162.35 279.756 156.809 280.102 151.441 280.275 148.671 280.622 148.324 283.219 148.151 285.643 147.978 288.067 148.151 290.491 148.151 291.876 148.151 293.435 148.151 294.82 147.978 296.205 147.632 298.283 146.42 297.937 144.169 297.763 142.437 297.071 141.225 295.339 140.706 294.127 140.186 292.915 140.186 291.703 140.013 287.894 139.84 283.911 140.013 280.275 139.84 273.869 139.494 267.462 139.494 261.056 139.494 259.151 139.494 257.419 139.494 256.207 140.879 254.13 143.13 254.303 146.42 257.073 147.459 258.112 147.805 260.19 147.805 261.402 147.805 263.999 147.459 265.384 147.459 267.635 147.805 270.752 148.151 270.752 148.151 270.579 151.268 270.579 155.597 269.713 159.752 269.886 163.908 269.886 175.855 269.886 187.803 269.886 199.75 269.713 216.719 269.886 233.688 270.925 250.83 270.925 252.561 270.579 253.254 268.847 253.6 266.596 253.946 264.692 255.158 264.692 257.582 264.692 259.66 265.557 260.699 267.462 261.565 268.328 261.911 269.713 262.084 270.233 261.911 274.215 261.738 278.197 261.565 282.007 261.045 283.565 260.872 285.123 260.007 285.297 258.275 285.643 256.717 285.47 255.158 284.258 254.119 283.911 253.946 282.872 253.773 282.526 253.6 280.275 253.254 279.929 251.522 279.756 249.617 279.583 248.232 279.409 246.847 279.409 245.462 279.409 231.264 279.063 217.065 279.236 202.867 279.409 191.093 278.717 179.492 279.063 167.89Z" fill="#948946" transform="matrix(1.00001 0 0 1 -91.9989 -110.999)"/><path d="M320.792 139.667C315.944 139.667 312.308 139.494 308.845 139.667 306.248 139.84 304.343 141.918 304.343 144.169 304.343 146.247 305.902 147.632 308.499 147.978 308.845 148.151 309.191 147.978 309.365 148.151 312.828 148.498 312.828 148.498 313.001 151.961 313.001 152.999 313.001 153.865 313.001 154.904 312.828 171.7 312.654 188.668 312.654 205.464 312.654 219.836 313.52 234.034 314.905 248.059 315.252 252.215 315.252 252.388 310.923 252.388 309.018 252.388 307.287 252.734 305.728 253.946 303.651 255.678 303.824 258.621 305.902 259.833 307.633 261.219 309.884 261.392 311.962 261.392 318.888 261.392 325.641 261.045 332.567 260.872 333.086 260.872 333.606 260.699 334.125 260.526 336.895 259.66 337.588 257.236 336.03 254.812 335.164 253.6 333.779 252.734 332.22 252.734 330.489 252.561 328.757 252.388 327.026 252.388 324.948 252.388 323.909 251.349 323.736 249.271 323.39 245.635 323.043 242.172 322.697 238.536 321.831 225.55 321.831 212.563 321.658 198.711 321.658 191.093 321.831 185.205 322.005 177.76 322.178 169.276 322.005 160.618 322.178 151.961 322.178 148.324 322.178 148.324 325.987 147.978 328.411 147.805 330.662 147.805 332.913 146.939 334.645 146.42 335.164 144.515 334.991 142.957 334.818 140.879 333.779 139.84 331.701 139.667 327.719 138.974 324.082 139.667 320.792 139.667Z" fill="#948946" transform="matrix(1.00001 0 0 1 -91.9989 -110.999)"/><path d="M388.321 241.999C390.399 234.207 391.438 221.221 391.784 212.91 392.304 200.443 391.438 192.997 390.226 180.53 389.014 168.756 385.031 157.675 380.356 146.766 379.317 144.342 377.759 142.091 374.989 140.706 367.716 136.896 357.5 139.84 352.999 147.112 349.882 152.48 348.67 158.54 347.631 164.427 345.38 177.067 344.514 189.881 344.341 202.694 344.341 212.91 345.034 223.125 346.765 233.341 347.804 239.575 349.189 245.808 352.306 251.522 354.903 256.197 357.847 258.621 362.522 260.526 365.292 261.565 368.582 261.911 371.526 261.565 373.43 261.219 375.508 260.18 376.201 259.66 378.971 257.582 385.551 252.561 388.321 241.999ZM382.78 215.16C382.434 220.009 382.434 223.818 381.741 228.839 381.568 229.532 381.568 231.263 381.222 232.476 379.491 242.865 375.162 247.713 371.699 250.483 369.967 251.868 368.063 252.561 366.158 252.042 362.002 250.656 358.193 245.116 357.154 240.96 356.115 236.804 355.942 235.246 355.423 230.917 354.384 223.125 353.864 215.16 353.864 207.196 353.691 198.192 354.037 189.015 355.076 180.011 355.942 172.739 356.981 165.639 358.886 158.54 359.924 154.904 361.137 151.268 364.946 149.363 368.582 147.285 371.352 148.151 373.084 151.787 374.123 154.038 375.854 159.406 377.066 162.869 379.144 169.102 380.529 175.682 381.395 182.435 382.954 193.344 383.3 204.252 382.78 215.16ZM360.444 135.165C361.656 135.338 363.041 134.299 364.08 133.607 367.37 131.182 371.699 127.719 374.815 124.43 376.547 122.525 376.201 120.274 375.162 119.235 374.123 118.196 371.699 117.677 369.794 118.716 366.331 120.62 363.561 123.737 360.271 126.334 359.578 126.854 357.674 128.585 357.327 129.278 355.596 132.395 356.808 135.165 360.444 135.165Z" fill="#948946" transform="matrix(1.00001 0 0 1 -91.9989 -110.999)"/><path d="M412.909 163.042C413.255 160.964 414.294 162.523 414.467 164.081 415.506 168.583 416.545 173.258 417.41 177.76 418.276 183.301 418.796 188.842 419.835 194.209 421.393 203.559 423.124 212.91 425.029 222.087 426.761 231.263 428.838 240.094 431.955 248.925 432.994 251.695 434.379 254.119 435.938 256.543 438.362 260.526 441.305 261.045 444.422 256.717 445.115 255.678 445.634 254.119 445.98 253.6 450.136 244.25 450.655 236.804 452.041 227.627 453.426 217.585 453.426 207.542 453.426 197.326 453.426 181.223 451.694 165.12 449.27 149.19 448.924 146.766 448.924 144.688 450.482 142.437 451.867 140.533 451.348 138.455 449.27 137.589 445.634 136.55 441.652 136.031 438.015 137.416 436.63 137.935 435.418 138.628 435.245 140.359 435.245 141.918 436.284 142.957 437.669 143.476 440.439 144.169 441.132 146.073 441.478 148.498 444.422 167.717 446.327 187.11 445.634 206.503 445.288 218.623 443.729 230.398 441.305 242.172 441.132 243.211 440.266 246.501 439.747 244.942 438.189 240.787 436.976 236.112 436.111 231.783 434.552 224.164 433.167 218.624 431.609 209.966 429.012 194.902 426.934 179.838 423.298 165.466 422.778 163.215 421.739 159.233 421.22 156.809 420.354 152.307 419.661 150.229 418.276 145.727 417.584 143.13 416.198 141.052 414.121 141.225 412.043 141.225 409.965 141.572 408.58 144.342 407.368 146.766 406.502 151.095 405.983 154.558 404.251 166.505 402.693 178.626 402.693 190.746 402.52 197.326 402.693 203.906 402.693 210.485 402.52 223.645 403.385 236.631 405.463 249.617 405.809 251.522 405.636 252.907 403.558 253.946 400.961 255.331 400.788 257.756 402.52 260.18 403.385 261.392 404.771 262.431 406.502 262.777 409.446 263.296 411.177 263.47 414.121 263.123 415.333 262.95 417.757 262.431 418.623 261.738 419.661 260.699 420.874 259.487 420.527 257.756 420.181 256.024 419.142 254.812 417.237 254.639 415.16 254.466 414.813 253.254 414.467 251.695 413.082 245.635 412.735 239.402 412.389 233.341 411.87 224.511 411.35 215.853 411.523 207.196 411.523 206.157 411.35 191.093 411.35 188.149 411.697 181.569 412.216 174.816 412.216 171.353 412.389 168.583 412.562 165.12 412.909 163.042Z" fill="#948946" transform="matrix(1.00001 0 0 1 -91.9989 -110.999)"/><path d="M96.5688 322.901C96.5688 323.27 96.5688 323.639 96.5688 324.008 96.5688 330.459 97.0296 336.819 98.5965 343.178 99.6103 347.418 102.375 350.183 107.076 350.46 109.38 350.644 111.408 350.736 114.357 350.552 115.463 350.552 115.924 350.552 116.661 350.736 118.505 351.105 119.703 350.183 119.703 348.248 119.611 347.418 119.334 346.497 119.242 345.575 118.966 344.561 118.32 343.916 117.307 343.916 116.293 343.916 115.648 344.1 115.279 344.93 114.818 345.667 114.357 346.22 113.436 346.22 111.408 346.128 109.38 346.22 107.352 346.036 105.509 345.851 104.127 344.93 103.574 342.994 102.652 339.86 102.099 336.635 102.191 333.409 102.283 331.842 102.283 331.75 103.85 331.473 106.154 331.012 108.551 330.644 110.855 330.275 111.592 330.091 112.145 330.275 112.883 330.644 114.449 331.473 115.74 330.828 116.016 328.985 116.293 327.602 116.108 326.773 115.74 325.39 115.371 324.284 114.357 323.178 113.251 322.994 112.145 322.901 111.5 323.639 111.131 324.468 110.947 325.114 110.486 325.574 109.841 325.759 107.629 326.22 105.417 326.496 103.205 326.773 102.283 326.865 101.915 326.404 101.822 325.482 101.822 325.021 101.822 324.561 101.822 324.008 101.638 318.938 101.73 313.961 102.283 308.892 102.744 304.56 103.113 301.334 103.942 297.094 104.127 295.896 104.495 294.145 105.048 293.039 105.325 292.302 106.246 291.564 107.537 291.288 111.131 290.458 112.514 290.366 112.975 291.196 113.804 292.855 115.095 293.039 116.477 291.841 117.952 290.458 118.505 287.601 117.675 285.758 116.938 284.283 116.108 284.007 114.634 284.836 113.989 285.113 113.528 285.758 112.79 285.85 110.486 286.126 108.919 286.403 106.615 287.048 103.205 287.878 101.546 288.984 100.44 291.749 99.6103 293.592 99.0573 295.62 98.7808 297.647 98.4121 300.228 98.0434 302.901 97.6748 305.482 96.8452 311.288 96.6609 317.095 96.5687 322.901Z" fill="#C6B661" transform="matrix(1.00001 0 0 1 -91.9989 -110.999)"/><path d="M130.026 305.297C129.657 305.943 130.118 301.887 130.21 300.228 130.394 297.555 130.579 294.882 130.763 292.209 130.855 291.103 131.224 290.274 132.422 289.721 133.713 289.168 133.897 288.154 133.067 286.956 132.514 286.219 131.777 286.034 130.947 286.126 129.196 286.219 127.445 286.587 125.786 287.048 124.772 287.325 124.035 287.785 123.943 288.891 123.851 290.09 124.588 290.735 125.51 290.919 126.708 291.196 126.8 291.933 126.8 292.855 126.616 295.067 126.431 297.187 126.247 299.306 125.878 303.546 125.51 307.694 125.233 311.933 124.957 316.911 124.772 321.888 124.588 326.957 124.404 332.671 124.496 338.386 124.496 344.008 124.496 345.206 124.404 345.851 123.574 346.773 123.021 347.418 122.56 348.524 123.021 349.354 123.482 350.368 124.311 350.644 125.325 350.644 127.353 350.736 129.012 350.46 131.04 349.999 131.777 349.815 132.606 349.262 132.606 348.524 132.791 347.326 132.238 346.497 130.947 346.128 129.381 345.667 129.381 345.667 129.381 344.008 129.288 340.874 129.104 339.4 129.104 335.252 129.012 333.501 129.012 331.473 129.473 331.381 130.026 331.197 130.487 331.934 130.763 332.303 133.713 335.436 137.307 337.648 141.455 338.662 142.284 338.847 142.929 339.307 143.575 339.86 144.865 340.966 146.34 340.782 147.446 339.4 148.275 338.386 148.459 337.003 148.644 335.713 148.828 334.791 148.275 333.962 147.446 333.593 146.616 333.132 145.787 333.409 145.234 334.054 144.496 334.883 143.667 334.791 142.653 334.607 139.888 334.054 137.676 332.303 135.648 330.551 134.45 329.538 133.344 328.339 132.238 327.049 131.04 325.666 130.855 325.298 132.791 324.1 134.173 323.27 135.648 322.625 136.938 321.703 142.284 317.74 145.879 314.606 149.197 309.445 151.777 305.389 152.699 299.859 151.962 295.067 151.777 293.684 151.132 292.578 149.75 291.841 147.63 290.643 145.141 290.366 142.561 291.472 139.15 292.762 136.938 294.882 134.726 298.108 132.883 300.505 131.593 302.901 130.026 305.297ZM130.579 319.491C131.04 316.542 131.316 313.869 132.238 310.92 133.713 306.496 136.017 303.085 138.782 299.399 139.888 297.924 141.547 296.357 143.298 295.435 143.851 295.159 144.496 295.067 145.141 295.067 146.432 295.067 147.446 295.896 147.63 297.094 148.091 300.136 147.906 303.362 146.155 306.403 144.681 308.892 142.929 311.104 140.809 313.132 138.229 315.528 135.464 317.924 132.238 319.491 131.777 319.676 131.408 319.86 130.947 320.044 130.855 320.044 130.487 320.044 130.579 319.491Z" fill="#C6B661" transform="matrix(1.00001 0 0 1 -91.9989 -110.999)"/><path d="M161.363 298.477C161.547 297.371 162.1 298.2 162.192 299.03 162.745 301.426 163.298 303.915 163.759 306.311 164.22 309.261 164.497 312.21 165.05 315.067 165.879 320.044 166.801 325.021 167.815 329.906 168.736 334.791 169.842 339.492 171.501 344.192 172.054 345.667 172.792 346.957 173.621 348.248 174.912 350.368 176.479 350.644 178.138 348.34 178.506 347.787 178.783 346.957 178.967 346.681 181.179 341.704 181.456 337.741 182.193 332.856 182.93 327.51 182.93 322.164 182.93 316.726 182.93 308.155 182.009 299.583 180.718 291.103 180.534 289.813 180.534 288.707 181.363 287.509 182.101 286.495 181.824 285.389 180.718 284.928 178.783 284.375 176.663 284.099 174.727 284.836 173.99 285.113 173.345 285.481 173.253 286.403 173.253 287.232 173.806 287.785 174.543 288.062 176.018 288.431 176.386 289.444 176.571 290.735 178.138 300.965 179.151 311.288 178.783 321.611 178.598 328.063 177.769 334.33 176.479 340.598 176.386 341.151 175.926 342.902 175.649 342.072 174.82 339.86 174.174 337.372 173.713 335.068 172.884 331.012 172.147 328.063 171.317 323.454 169.935 315.436 168.829 307.417 166.893 299.767 166.617 298.569 166.064 296.449 165.787 295.159 165.326 292.762 164.958 291.656 164.22 289.26 163.851 287.878 163.114 286.772 162.008 286.864 160.902 286.864 159.796 287.048 159.059 288.523 158.414 289.813 157.953 292.117 157.676 293.961 156.755 300.32 155.925 306.772 155.925 313.224 155.833 316.726 155.925 320.229 155.925 323.731 155.833 330.736 156.294 337.648 157.4 344.561 157.584 345.575 157.492 346.312 156.386 346.865 155.003 347.603 154.911 348.893 155.833 350.183 156.294 350.828 157.031 351.381 157.953 351.566 159.52 351.842 160.441 351.934 162.008 351.75 162.653 351.658 163.944 351.381 164.404 351.013 164.958 350.46 165.603 349.815 165.418 348.893 165.234 347.971 164.681 347.326 163.667 347.234 162.561 347.142 162.377 346.497 162.192 345.667 161.455 342.441 161.271 339.123 161.086 335.897 160.81 331.197 160.533 326.588 160.626 321.98 160.626 321.427 160.533 313.408 160.533 311.841 160.718 308.339 160.994 304.744 160.994 302.901 161.086 301.426 161.179 299.583 161.363 298.477Z" fill="#C6B661" transform="matrix(1.00001 0 0 1 -91.9989 -110.999)"/><path d="M188.829 322.901C188.829 323.27 188.829 323.639 188.829 324.008 188.829 330.459 189.29 336.819 190.857 343.178 191.871 347.418 194.636 350.183 199.336 350.46 201.64 350.644 203.668 350.736 206.618 350.552 207.724 350.552 208.184 350.552 208.922 350.736 210.765 351.105 211.963 350.183 211.963 348.248 211.871 347.418 211.595 346.497 211.502 345.575 211.226 344.561 210.581 343.916 209.567 343.916 208.553 343.916 207.908 344.1 207.539 344.93 207.078 345.667 206.618 346.22 205.696 346.22 203.668 346.128 201.64 346.22 199.613 346.036 197.769 345.851 196.387 344.93 195.834 342.994 194.912 339.86 194.359 336.635 194.451 333.409 194.543 331.842 194.543 331.75 196.11 331.473 198.415 331.012 200.811 330.644 203.115 330.275 203.852 330.091 204.405 330.275 205.143 330.644 206.71 331.473 208 330.828 208.277 328.985 208.553 327.602 208.369 326.773 208 325.39 207.631 324.284 206.617 323.178 205.511 322.994 204.405 322.901 203.76 323.639 203.392 324.468 203.207 325.114 202.746 325.574 202.101 325.759 199.889 326.22 197.677 326.496 195.465 326.773 194.543 326.865 194.175 326.404 194.083 325.482 194.083 325.021 194.083 324.561 194.083 324.008 193.898 318.938 193.99 313.961 194.543 308.892 195.004 304.56 195.373 301.334 196.202 297.094 196.387 295.896 196.755 294.145 197.309 293.039 197.585 292.302 198.507 291.564 199.797 291.288 203.392 290.458 204.774 290.366 205.235 291.196 206.064 292.855 207.355 293.039 208.737 291.841 210.212 290.458 210.765 287.601 209.936 285.758 209.198 284.283 208.369 284.007 206.894 284.836 206.249 285.113 205.788 285.758 205.051 285.85 202.746 286.126 201.18 286.403 198.875 287.048 195.465 287.878 193.806 288.984 192.7 291.749 191.871 293.592 191.318 295.62 191.041 297.647 190.672 300.228 190.304 302.901 189.935 305.482 189.106 311.288 188.921 317.095 188.829 322.901Z" fill="#C6B661" transform="matrix(1.00001 0 0 1 -91.9989 -110.999)"/><path d="M239.614 325.021C238.139 321.058 236.296 317.279 234.268 313.5 231.964 309.168 229.383 305.113 226.895 300.873 225.881 299.03 225.051 297.094 224.498 295.159 224.222 294.145 224.129 293.131 224.406 292.117 224.775 290.274 226.157 289.721 227.724 290.919 229.752 292.67 231.319 294.606 231.134 297.555 231.042 299.122 232.056 299.952 233.623 299.675 235.282 299.491 236.664 298.569 237.863 297.371 239.061 295.896 238.876 294.422 237.125 293.592 236.111 293.131 235.282 292.762 234.637 291.841 232.701 288.891 230.581 286.311 226.987 285.85 223.669 285.481 220.811 286.956 219.798 290.182 219.06 292.67 219.152 295.159 219.982 297.555 220.904 300.044 222.01 302.44 223.484 304.744 225.235 307.602 226.987 310.643 228.738 313.592 230.489 316.45 231.872 319.583 233.254 322.625 234.544 325.574 235.835 327.418 235.927 331.289 235.927 332.671 235.927 333.593 235.835 334.423 235.65 338.294 234.268 342.718 230.305 345.206 226.157 347.971 222.378 346.22 220.719 341.888 219.429 338.662 219.89 335.252 221.825 332.21 222.931 330.551 224.129 329.169 226.526 329.814 228.277 330.275 229.199 328.892 228.646 327.141 228.093 325.482 226.895 324.192 225.512 323.178 223.484 321.703 221.272 322.809 221.18 325.298 221.18 326.22 220.719 326.588 220.258 327.141 216.94 330.275 215.097 334.146 214.82 338.662 214.544 343.916 216.94 347.326 221.18 349.999 222.747 350.921 225.696 351.197 228.461 350.736 229.567 350.644 231.687 349.815 232.793 349.077 236.941 346.128 239.429 342.625 240.259 337.28 240.904 333.132 241.088 328.985 239.614 325.021Z" fill="#C6B661" transform="matrix(1.00001 0 0 1 -91.9989 -110.999)"/><path d="M257.31 301.058C257.494 298.108 257.679 295.159 257.863 292.302 257.955 290.827 258.139 290.643 259.522 290.55 260.812 290.458 262.103 290.55 263.393 290.55 264.13 290.55 264.96 290.55 265.697 290.458 266.435 290.274 267.541 289.629 267.356 288.431 267.264 287.509 266.895 286.864 265.974 286.587 265.329 286.311 264.683 286.311 264.038 286.219 262.011 286.126 259.891 286.219 257.955 286.126 254.545 285.942 251.135 285.942 247.724 285.942 246.711 285.942 245.789 285.942 245.144 286.679 244.038 287.878 244.13 289.629 245.605 290.182 246.158 290.366 247.264 290.366 247.909 290.366 249.291 290.182 250.029 290.182 251.227 290.366 252.886 290.55 252.886 290.55 252.794 292.209 252.794 294.514 252.333 296.726 252.425 298.938 252.425 305.297 252.425 311.657 252.425 318.017 252.333 327.049 252.425 336.082 252.978 345.206 252.978 346.128 252.794 346.497 251.872 346.681 250.674 346.865 249.66 347.51 249.66 348.801 249.66 349.907 250.121 350.46 251.135 350.921 251.596 351.105 252.333 351.197 252.609 351.105 254.729 351.013 256.849 350.921 258.877 350.644 259.706 350.552 260.536 350.091 260.628 349.169 260.812 348.34 260.72 347.51 260.075 346.957 259.891 346.865 259.338 346.773 259.153 346.681 257.955 346.497 257.771 345.575 257.679 344.561 257.586 343.824 257.494 343.086 257.494 342.349 257.494 334.791 257.31 327.233 257.402 319.676 257.494 313.408 257.126 307.233 257.31 301.058Z" fill="#C6B661" transform="matrix(1.00001 0 0 1 -91.9989 -110.999)"/><path d="M295.191 340.506C296.297 336.358 296.85 329.445 297.034 325.021 297.311 318.385 296.85 314.422 296.205 307.786 295.56 301.518 293.44 295.62 290.951 289.813 290.398 288.523 289.569 287.325 288.094 286.587 284.223 284.56 278.785 286.126 276.389 289.997 274.73 292.855 274.085 296.081 273.532 299.214 272.333 305.943 271.873 312.763 271.78 319.583 271.78 325.021 272.149 330.459 273.071 335.897 273.624 339.215 274.361 342.533 276.02 345.575 277.403 348.063 278.97 349.354 281.458 350.368 282.933 350.921 284.684 351.105 286.251 350.921 287.265 350.736 288.371 350.183 288.739 349.907 290.214 348.801 293.716 346.128 295.191 340.506ZM292.242 326.22C292.057 328.8 292.057 330.828 291.689 333.501 291.596 333.869 291.596 334.791 291.412 335.436 290.491 340.966 288.186 343.547 286.343 345.022 285.421 345.759 284.407 346.128 283.394 345.851 281.182 345.114 279.154 342.165 278.601 339.953 278.048 337.741 277.956 336.911 277.679 334.607 277.126 330.459 276.85 326.22 276.85 321.98 276.757 317.187 276.942 312.302 277.495 307.509 277.956 303.638 278.509 299.859 279.522 296.081 280.076 294.145 280.721 292.209 282.748 291.196 284.684 290.09 286.159 290.55 287.08 292.486 287.633 293.684 288.555 296.541 289.2 298.385 290.306 301.703 291.044 305.205 291.504 308.8 292.334 314.606 292.518 320.413 292.242 326.22Z" fill="#C6B661" transform="matrix(1.00001 0 0 1 -91.9989 -110.999)"/><path d="M326.989 297.187C326.713 297.463 326.805 296.265 326.805 295.804 327.081 292.947 326.897 290.827 328.832 288.707 329.293 288.246 329.201 287.048 328.74 286.495 327.358 284.836 324.408 284.56 322.473 285.85 320.814 286.956 320.722 288.062 322.196 289.444 322.841 290.09 322.934 290.735 322.841 291.564 322.565 294.606 322.565 295.62 322.104 301.058 321.643 306.864 321.551 311.196 321.551 316.45 321.367 326.22 321.182 335.897 321.828 345.667 321.828 346.681 321.551 347.326 320.629 347.971 319.431 348.801 319.523 350.275 320.722 351.197 321.275 351.566 322.565 351.842 323.21 351.75 325.146 351.75 326.252 351.381 328.003 350.644 329.293 350.091 329.57 348.432 328.556 347.418 328.279 347.142 327.819 346.865 327.358 346.773 326.252 346.497 325.975 345.759 325.975 344.745 325.975 341.796 325.975 338.847 325.883 335.897 325.791 332.026 325.514 328.063 325.883 324.192 325.975 323.178 326.344 322.533 327.358 321.98 334.086 318.662 339.155 313.5 343.026 307.141 344.317 305.113 345.238 302.993 345.423 300.597 345.515 296.818 345.515 294.237 341.92 292.117 340.446 291.196 338.602 291.103 336.298 291.749 334.731 292.394 333.072 293.039 331.597 293.961 330.031 294.882 328.556 295.804 326.989 297.187ZM325.975 311.196C326.252 304.284 327.266 302.717 329.201 300.505 331.505 298.2 332.611 297.463 334.639 296.449 335.376 295.988 336.206 295.712 337.035 295.62 339.616 295.159 340.814 296.081 341.091 298.661 341.367 300.781 340.906 302.717 339.8 304.468 336.851 309.629 333.072 314.053 327.726 317.003 327.542 317.187 327.266 317.371 327.081 317.464 326.344 317.74 325.975 317.556 325.975 316.818 325.975 315.159 325.975 313.592 325.975 311.196Z" fill="#C6B661" transform="matrix(1.00001 0 0 1 -91.9989 -110.999)"/><path d="M348.833 322.901C348.833 323.27 348.833 323.639 348.833 324.008 348.833 330.459 349.294 336.819 350.861 343.178 351.874 347.418 354.64 350.183 359.34 350.46 361.644 350.644 363.672 350.736 366.621 350.552 367.727 350.552 368.188 350.552 368.926 350.736 370.769 351.105 371.967 350.183 371.967 348.248 371.875 347.418 371.598 346.497 371.506 345.575 371.23 344.561 370.585 343.916 369.571 343.916 368.557 343.916 367.912 344.1 367.543 344.93 367.082 345.667 366.621 346.22 365.7 346.22 363.672 346.128 361.644 346.22 359.617 346.036 357.773 345.851 356.391 344.93 355.838 342.994 354.916 339.86 354.363 336.635 354.455 333.409 354.547 331.842 354.547 331.75 356.114 331.473 358.418 331.012 360.815 330.644 363.119 330.275 363.856 330.091 364.409 330.275 365.147 330.644 366.714 331.473 368.004 330.828 368.28 328.985 368.557 327.602 368.373 326.773 368.004 325.39 367.635 324.284 366.621 323.178 365.515 322.994 364.409 322.901 363.764 323.639 363.395 324.468 363.211 325.114 362.75 325.574 362.105 325.759 359.893 326.22 357.681 326.496 355.469 326.773 354.547 326.865 354.179 326.404 354.086 325.482 354.086 325.021 354.086 324.561 354.086 324.008 353.902 318.938 353.994 313.961 354.547 308.892 355.008 304.56 355.377 301.334 356.206 297.094 356.391 295.896 356.759 294.145 357.312 293.039 357.589 292.302 358.511 291.564 359.801 291.288 363.395 290.458 364.778 290.366 365.239 291.196 366.068 292.855 367.359 293.039 368.741 291.841 370.216 290.458 370.769 287.601 369.939 285.758 369.202 284.283 368.373 284.007 366.898 284.836 366.253 285.113 365.792 285.758 365.055 285.85 362.75 286.126 361.183 286.403 358.879 287.048 355.469 287.878 353.81 288.984 352.704 291.749 351.874 293.592 351.321 295.62 351.045 297.647 350.676 300.228 350.308 302.901 349.939 305.482 349.109 311.288 348.925 317.095 348.833 322.901ZM357.22 283.638C357.865 283.73 358.603 283.177 359.156 282.808 360.907 281.518 363.211 279.675 364.87 277.923 365.792 276.91 365.608 275.711 365.055 275.158 364.502 274.605 363.211 274.329 362.197 274.882 360.354 275.896 358.879 277.555 357.128 278.937 356.759 279.214 355.746 280.135 355.561 280.504 354.64 282.163 355.285 283.638 357.22 283.638Z" fill="#C6B661" transform="matrix(1.00001 0 0 1 -91.9989 -110.999)"/><path d="M382.29 305.297C381.921 305.943 382.382 301.887 382.474 300.228 382.659 297.555 382.843 294.882 383.027 292.209 383.119 291.103 383.488 290.274 384.686 289.721 385.977 289.168 386.161 288.154 385.332 286.956 384.779 286.219 384.041 286.034 383.212 286.126 381.46 286.219 379.709 286.587 378.05 287.048 377.036 287.325 376.299 287.785 376.207 288.891 376.115 290.09 376.852 290.735 377.774 290.919 378.972 291.196 379.064 291.933 379.064 292.855 378.88 295.067 378.695 297.187 378.511 299.306 378.142 303.546 377.774 307.694 377.497 311.933 377.221 316.911 377.036 321.888 376.852 326.957 376.668 332.671 376.76 338.386 376.76 344.008 376.76 345.206 376.668 345.851 375.838 346.773 375.285 347.418 374.824 348.524 375.285 349.354 375.746 350.368 376.576 350.644 377.589 350.644 379.617 350.736 381.276 350.46 383.304 349.999 384.041 349.815 384.871 349.262 384.871 348.524 385.055 347.326 384.502 346.497 383.212 346.128 381.645 345.667 381.645 345.667 381.645 344.008 381.553 340.874 381.368 339.4 381.368 335.252 381.276 333.501 381.276 331.473 381.737 331.381 382.29 331.197 382.751 331.934 383.027 332.303 385.977 335.436 389.571 337.648 393.719 338.662 394.548 338.847 395.194 339.307 395.839 339.86 397.129 340.966 398.604 340.782 399.71 339.4 400.539 338.386 400.724 337.003 400.908 335.713 401.092 334.791 400.539 333.962 399.71 333.593 398.88 333.132 398.051 333.409 397.498 334.054 396.76 334.883 395.931 334.791 394.917 334.607 392.152 334.054 389.94 332.303 387.912 330.551 386.714 329.538 385.608 328.339 384.502 327.049 383.304 325.666 383.12 325.298 385.055 324.1 386.438 323.27 387.912 322.625 389.203 321.703 394.548 317.74 398.143 314.606 401.461 309.445 404.042 305.389 404.963 299.859 404.226 295.067 404.042 293.684 403.396 292.578 402.014 291.841 399.894 290.643 397.406 290.366 394.825 291.472 391.415 292.762 389.203 294.882 386.991 298.108 385.147 300.505 383.857 302.901 382.29 305.297ZM382.843 319.491C383.304 316.542 383.58 313.869 384.502 310.92 385.977 306.496 388.281 303.085 391.046 299.399 392.152 297.924 393.811 296.357 395.562 295.435 396.115 295.159 396.76 295.067 397.406 295.067 398.696 295.067 399.71 295.896 399.894 297.094 400.355 300.136 400.171 303.362 398.419 306.403 396.945 308.892 395.193 311.104 393.074 313.132 390.493 315.528 387.728 317.924 384.502 319.491 384.041 319.676 383.672 319.86 383.212 320.044 383.119 320.044 382.751 320.044 382.843 319.491Z" fill="#C6B661" transform="matrix(1.00001 0 0 1 -91.9989 -110.999)"/><path d="M407.913 322.901C407.913 323.27 407.913 323.639 407.913 324.008 407.913 330.459 408.374 336.819 409.94 343.178 410.954 347.418 413.719 350.183 418.42 350.46 420.724 350.644 422.752 350.736 425.701 350.552 426.807 350.552 427.268 350.552 428.005 350.736 429.849 351.105 431.047 350.183 431.047 348.248 430.955 347.418 430.678 346.497 430.586 345.575 430.31 344.561 429.664 343.916 428.651 343.916 427.637 343.916 426.992 344.1 426.623 344.93 426.162 345.667 425.701 346.22 424.779 346.22 422.752 346.128 420.724 346.22 418.696 346.036 416.853 345.851 415.47 344.93 414.917 342.994 413.996 339.86 413.443 336.635 413.535 333.409 413.627 331.842 413.627 331.75 415.194 331.473 417.498 331.012 419.895 330.644 422.199 330.275 422.936 330.091 423.489 330.275 424.226 330.644 425.793 331.473 427.084 330.828 427.36 328.985 427.637 327.602 427.452 326.773 427.084 325.39 426.715 324.284 425.701 323.178 424.595 322.994 423.489 322.901 422.844 323.639 422.475 324.468 422.291 325.114 421.83 325.574 421.185 325.759 418.973 326.22 416.761 326.496 414.549 326.773 413.627 326.865 413.258 326.404 413.166 325.482 413.166 325.021 413.166 324.561 413.166 324.008 412.982 318.938 413.074 313.961 413.627 308.892 414.088 304.56 414.457 301.334 415.286 297.094 415.47 295.896 415.839 294.145 416.392 293.039 416.669 292.302 417.59 291.564 418.881 291.288 422.475 290.458 423.858 290.366 424.319 291.196 425.148 292.855 426.438 293.039 427.821 291.841 429.296 290.458 429.849 287.601 429.019 285.758 428.282 284.283 427.452 284.007 425.978 284.836 425.332 285.113 424.872 285.758 424.134 285.85 421.83 286.126 420.263 286.403 417.959 287.048 414.549 287.878 412.89 288.984 411.784 291.749 410.954 293.592 410.401 295.62 410.125 297.647 409.756 300.228 409.387 302.901 409.019 305.482 408.189 311.288 408.005 317.095 407.913 322.901Z" fill="#C6B661" transform="matrix(1.00001 0 0 1 -91.9989 -110.999)"/><path d="M439.895 290.55C441.37 290.643 444.78 290.643 445.609 290.643 446.347 290.643 446.623 291.011 446.531 291.749 446.439 292.209 446.439 292.67 446.347 293.131 445.425 297.279 444.503 301.426 443.582 305.574 442.844 309.261 439.158 326.035 438.236 330.736 437.406 334.883 436.393 339.031 435.563 343.086 435.287 344.284 435.102 345.391 435.01 346.589 434.918 348.616 435.471 349.169 437.407 349.63 440.725 350.46 444.227 350.736 447.361 350.183 448.006 349.999 448.743 349.999 449.204 350.736 449.757 351.842 450.771 351.934 451.877 351.566 452.983 351.289 453.167 350.368 453.352 349.354 453.536 347.603 453.352 345.851 453.075 344.1 452.891 342.625 451.785 341.704 450.494 341.888 449.296 341.98 448.651 342.718 448.743 344.284 448.743 345.39 448.375 345.759 447.361 345.943 445.517 346.22 443.766 346.312 441.923 346.128 440.079 345.943 439.526 345.298 440.079 343.547 440.54 342.072 440.725 340.598 441.093 339.123 442.291 333.962 447.084 312.671 450.034 299.03 450.587 296.357 451.416 293.684 451.693 291.011 452.061 287.232 452.43 285.573 447.084 286.219 445.056 286.495 443.121 286.403 441.093 286.403 439.895 286.403 438.789 286.126 437.775 285.297 435.747 283.73 434.273 284.56 433.904 287.048 433.72 288.523 433.904 289.905 434.088 291.38 434.181 292.302 434.918 292.67 435.747 292.67 436.669 292.578 437.591 292.394 437.96 291.38 438.328 290.458 438.881 290.458 439.895 290.55Z" fill="#C6B661" transform="matrix(1.00001 0 0 1 -91.9989 -110.999)"/></g></svg>